<svg width="128" height="56" viewBox="0 0 128 56" fill="none" xmlns="http://www.w3.org/2000/svg">
<g clip-path="url(#clip0_54_945)">
<path fill-rule="evenodd" clip-rule="evenodd" d="M98.4589 11.2753C99.912 11.9541 99.0302 11.346 101.02 10.6748C101.209 10.6117 101.512 10.758 101.522 10.8287C101.683 11.8708 100.737 12.3364 102.729 12.0941C103.31 12.0235 103.153 11.756 103.072 11.3662C102.883 10.4603 103.079 10.3152 102.533 9.98591C102.192 9.78152 103.784 9.57587 104.778 9.64147C105.844 9.71339 105.767 10.02 105.816 10.917C105.844 11.404 107.163 11.317 107.771 11.6891C108.39 12.0689 106.134 11.6563 105.752 12.3894C105.6 12.6783 105.357 12.9559 104.835 13.0543C103.807 13.2473 103.308 13.3848 102.803 13.2738C101.519 12.9899 100.67 13.6927 100.421 13.8024C99.7555 14.0964 99.4699 14.4257 99.8698 14.8685C100.088 15.1108 99.7928 15.3391 99.6239 15.5612C99.2413 16.0671 97.9224 15.1852 97.8926 15.6243C97.8752 15.8854 97.515 16.0583 97.3411 16.2778C96.9388 16.7837 98.7669 16.9238 99.1768 16.327C99.4177 15.9788 100.451 15.8186 101.107 16.1441C102.157 16.6626 102.57 15.6772 103.253 15.8829C107.587 17.1837 103.491 16.9048 104.44 17.8296C105.146 18.516 104.763 18.8099 106.137 18.1589C106.84 18.7279 106.477 19.3714 106.859 19.9417C107.108 20.117 107.423 20.001 107.716 19.9833C108.407 19.9417 110.556 20.2924 109.443 20.8702C108.613 21.3005 110.056 21.6827 108.645 21.9578C105.933 22.4864 109.224 22.6971 110.97 21.6916C111.333 21.4821 111.802 21.3207 112.245 21.1289C112.863 21.2147 113.464 21.2954 114.063 21.3799C114.974 21.5099 115.735 20.9485 115.824 20.4615C115.901 20.0476 115.032 20.1183 114.671 20.0779C114.5 20.059 114.445 19.9391 114.572 19.9215C115.243 19.8281 115.983 19.8887 116.606 19.6754C116.855 19.5909 119.922 20.5523 120.695 19.4029C121.599 18.0593 123.05 18.6056 122.588 18.9613C122.503 19.027 122.344 19.0711 122.272 19.1392C121.475 19.8811 125.168 19.2238 123.69 20.874C122.071 22.6858 122.071 21.9262 121.932 21.2714C121.331 21.0961 120.571 21.0898 120.069 20.7971C119.657 20.5586 119.11 20.5485 118.549 20.6797C118.047 20.7958 116.882 20.3164 116.693 21.0317C116.549 21.5768 117.357 22.6 116.04 23.0567C115.094 23.386 115.066 24.3108 116.117 24.4357C118.529 24.7221 118.884 24.8129 119.706 24.4218C120.365 24.1077 120.819 24.4332 121.269 24.8331C121.572 25.1031 120.712 25.609 119.895 25.6229C118.141 25.6519 118.204 25.5813 116.604 25.334C113.151 26.1541 113.911 25.9144 113.541 26.3408C116.547 26.5502 116.249 26.4329 115.521 26.9931C115.218 27.2265 115.464 27.5242 115.973 27.5331C116.437 27.5419 117.091 27.47 117.103 27.5785C117.155 27.9545 116.224 27.875 115.812 28.3279C115.908 28.2774 114.833 28.3481 114.696 28.3594C113.832 28.4288 113.812 29.0344 114.06 29.1127C115.531 29.5719 115.061 29.8507 118.333 29.9075C118.954 29.9189 119.664 29.4609 120.638 30.0337C120.695 30.0665 120.643 30.204 120.561 30.2317C120.178 30.3642 119.597 30.2482 119.284 30.479C118.906 30.7579 117.98 30.7188 118.134 30.9749C118.248 31.1629 118.785 31.1515 119.607 31.236C119.813 31.2575 119.93 31.4404 119.609 31.5073C117.607 31.9274 117.163 32.1533 116.038 32.0006C114.763 31.8277 114.808 32.2088 113.559 32.5141C113.124 32.6201 112.977 32.7576 113.275 32.9834C113.32 33.0162 113.218 33.1525 113.141 33.1638C112.354 33.2787 111.308 32.9481 109.264 33.5587C106.447 34.4003 101.966 33.2623 100.58 33.3455C96.7127 33.5789 99.5791 33.2433 96.5612 34.6677C95.1305 34.5744 95.6446 34.2981 93.4339 34.6501C92.3336 34.8255 93.2377 35.8916 94.4573 35.7957C96.129 35.6645 95.9973 36.3634 97.2766 35.9773C97.4405 35.9281 97.448 35.8512 97.3238 35.7692V35.7717C99.9964 35.3705 100.376 35.8095 101.576 35.4803C101.586 35.4777 101.775 35.5862 101.772 35.6417C101.767 35.7919 101.681 36.2196 101.681 36.2196C101.502 36.024 101.189 36.0505 100.898 36.1212C100.622 36.188 100.729 36.54 100.747 36.699C99.1991 36.8592 98.8042 36.8479 99.0799 37.0712C99.1221 37.1053 99.1594 37.1557 99.219 37.1646C99.9219 37.2705 100.401 37.4863 100.838 37.7954C101.422 38.2092 103.181 37.7828 102.61 37.4611C101.936 37.0826 101.864 37.1885 101.899 36.9072C101.909 36.8353 102.436 36.8504 102.572 36.8693C104.256 37.1027 103.452 36.7621 105.337 36.8681C105.762 36.892 105.769 37.2441 105.563 37.3298C104.828 37.6352 104.418 37.6465 103.683 38.0351C103.504 38.1297 103.618 38.4426 103.847 38.4527C104.763 38.4906 105.454 38.7467 106.142 39.0205C108.069 39.7876 103.919 40.1169 105.039 40.6367C105.27 40.7439 105.528 40.8385 105.747 40.9521C106.378 41.2788 104.835 41.8794 103.864 41.8958C102.89 41.9122 102.965 42.2692 102.751 42.4055C102.2 42.76 102.766 42.9455 103.479 43.4224C103.645 43.5334 103.355 43.6432 103.161 43.6482C102.913 43.6558 101.874 43.4994 102.17 43.8627C102.229 43.9372 102.341 44.0002 102.401 44.0734C102.878 44.6651 100.009 44.0154 98.9284 43.9056C98.2627 43.8375 97.6616 43.5852 97.0505 43.3972C95.5627 42.9404 98.1285 42.5708 97.3511 42.3096C97.0456 42.2062 96.7425 42.2983 96.4519 42.3538C95.2894 42.5758 94.8547 42.1582 93.578 41.7116C91.8492 41.1073 91.9063 42.6111 91.3947 42.8572C91.0717 43.0124 90.5526 43.0565 90.1477 43.1739C89.6584 43.3164 89.2262 43.141 88.7716 43.1448C86.8715 43.1587 85.6494 41.6725 83.9007 41.8933C83.0711 41.998 83.1257 42.6477 85.6345 43.0515C87.0155 43.2735 88.0761 44.3283 87.249 44.3169C86.8416 44.3106 86.0716 44.0229 85.1575 44.6374C85.2271 44.9465 85.704 45.1849 85.6419 45.5382C85.5724 45.9356 86.1238 46.2725 86.4169 46.6333C86.4417 46.6623 86.7199 46.675 86.8243 46.6447C87.0851 46.5677 87.1993 46.386 87.5669 46.3759C88.2426 46.357 88.4264 46.6977 88.4438 46.8238C88.491 47.196 88.0165 47.225 87.2391 47.4319C86.171 47.3272 85.6717 47.7083 85.1451 48.0666L85.242 48.0842C84.4273 47.2742 83.317 48.0363 81.3522 47.5531C81.2206 47.5203 80.8753 47.6073 80.7536 47.6868C80.4108 47.9139 80.6393 48.1574 79.7675 48.3C79.5911 48.329 79.2607 48.117 79.221 47.9618C79.0347 47.2705 78.9279 47.5291 76.8364 47.5001C76.203 47.4912 75.4604 47.3802 75.2691 47.4862C75.135 47.5594 75.1275 47.6414 75.2691 47.7007C75.5721 47.8256 75.8578 47.9858 76.208 48.0539C78.0411 48.4097 76.3844 49.1592 77.4922 49.0898C77.7406 49.0746 78.4137 48.8475 78.5479 49.4468C78.687 49.361 78.3889 49.5099 78.1579 49.5213C77.5369 49.5528 77.0898 49.9023 76.4018 49.7837C75.8031 49.679 75.7982 49.3257 75.4206 49.1264C72.5865 47.6338 73.0112 47.9227 72.2164 47.3563C72.0549 47.2414 72.3257 46.9891 72.6237 47.0156C73.0435 47.0535 73.3788 47.0333 73.7166 46.8995C74.0867 46.7544 75.0604 47.1342 75.3113 46.4567C75.5448 45.8309 73.6868 46.4832 73.5974 45.8019C73.4757 44.8796 70.2019 44.3598 71.881 45.9079C72.6088 46.5791 72.5641 46.4807 70.9272 46.4844C70.3882 46.4857 70.2938 46.381 68.637 45.8902C67.9763 45.6946 67.3901 46.1678 67.8571 46.434C70.1547 47.7398 70.6664 47.9278 70.9371 48.3933C71.1036 48.6772 70.5447 48.7983 70.2789 48.7352C68.9525 48.4173 68.955 48.2874 68.4483 48.5977C68.2421 48.7239 68.0657 48.9169 67.7304 48.7781C67.5367 48.6974 67.1914 48.5145 67.3106 48.3959C68.1949 47.5253 66.0414 47.5468 64.5262 46.0782C64.089 45.6543 65.5545 45.7767 65.8898 45.7804C66.4462 45.7867 66.2947 45.1597 65.5918 44.7623C64.3821 44.081 64.7398 43.8324 63.8456 43.9018C63.4283 43.9346 62.7949 44.1819 61.8783 43.7479C61.6349 43.6318 61.1108 43.6848 61.1033 43.8249C61.0735 44.2854 60.3631 44.3939 59.7272 44.5465C59.1708 44.3951 58.6144 44.2412 58.0531 44.0923C57.6532 43.9851 57.1787 44.2816 57.2905 44.4078C57.6432 44.8039 57.6259 45.277 58.2717 45.6152C58.8951 45.9432 57.755 46.4542 57.678 47.4534C57.3203 47.5922 57.3203 47.5594 57.4694 47.6149C57.5215 47.5518 57.5737 47.4887 57.6234 47.4256C58.756 47.5417 59.608 47.8647 60.3631 48.3391C59.0665 48.816 58.2096 49.0355 58.6343 49.3623C63.4854 53.0817 61.0437 49.7887 62.9265 53.2242C62.9961 53.3504 63.4755 54.0367 63.93 53.903C65.6092 53.4097 64.0219 53.146 63.8878 51.3532L63.8133 51.391C66.6673 52.3247 65.8898 53.8904 67.2336 54.033C68.3986 54.1566 68.5277 55.0158 67.9291 55.1268C67.0275 55.2933 67.1144 55.7942 67.1144 55.7942C66.6151 55.4548 64.551 54.6247 64.0716 54.8455C63.2022 55.2454 65.7458 56.4856 66.3121 58.0463C66.6102 58.8714 67.8844 59.1364 67.4174 59.5464C67.0598 59.8618 65.9345 59.5275 65.7656 59.0354C65.4303 58.069 65.6067 57.5555 65.0006 57.4344C64.0791 57.2502 63.627 56.7708 62.7676 56.5487C62.5738 56.4982 62.5738 56.3039 62.7402 56.2333C63.3041 55.9923 63.6643 55.9608 63.5053 55.8308C63.2941 55.658 62.3627 55.8762 62.0323 55.3716C60.7084 53.339 60.8574 53.0375 59.3522 53.9661C58.9846 54.1932 59.2056 54.4998 59.4913 54.7571C60.0502 55.258 60.2464 56.3128 59.6055 56.5676C58.6641 56.9423 58.761 54.8467 56.4162 54.9792C55.82 55.0133 55.6735 54.8429 54.598 53.5283C53.5597 52.2603 54.2999 52.5442 51.5924 51.8566C51.0981 51.7317 50.9267 52.0471 50.9913 52.1733C51.8309 53.826 53.3088 53.1927 52.2705 54.6991C52.0147 55.0713 50.574 54.9325 50.1617 54.7496C48.7757 54.1326 47.0816 55.4435 47.2183 54.6991C47.4021 53.7062 48.7359 54.1301 48.4602 53.2242C47.8864 51.3368 46.95 51.6055 46.6594 50.499C46.5352 50.0322 45.4472 50.0688 45.8248 49.5869C47.0494 48.0237 43.706 48.2508 44.7145 47.7322C44.8238 47.6767 44.9703 47.6376 45.0622 47.5758C45.3181 47.4042 45.1343 47.1165 44.7542 47.0913C44.0339 47.0421 43.4899 47.1367 42.9981 46.8402C42.695 46.6573 42.4318 46.4516 42.0865 46.2927C41.8058 46.1627 41.3314 46.1627 41.1153 45.9646C41.155 45.5445 42.5833 45.1042 42.084 44.8291C41.6841 44.6096 41.5698 44.4014 41.6816 44.0911C41.7586 43.8804 41.4407 43.6331 41.3016 43.4022C41.1302 43.1133 41.4407 42.7373 42.1461 42.6969C42.3001 42.6881 42.31 42.9897 42.3796 43.1322C42.556 43.4968 43.6538 43.1499 43.5768 42.678C43.557 42.5519 43.3781 42.0169 42.6801 41.8806C40.611 41.4782 41.7139 41.7078 40.8247 41.0719C40.0099 40.4903 39.5728 40.8158 38.6761 41.1262C38.5345 41.1754 38.0948 41.0896 38.07 41.0076C38.0228 40.8486 38.0303 40.6846 37.9557 40.5294C37.8465 40.2985 36.5995 40.3868 36.3412 40.6013C34.7912 41.8945 32.9656 41.3495 36.5449 42.2983C37.8017 42.6313 38.532 42.056 38.9841 42.7297C40.1416 44.4595 39.8535 44.9036 38.2662 45.007C38.0352 44.8241 37.4739 44.303 37.1062 44.3131C36.3909 44.3346 35.9165 44.168 35.5116 43.8968C35.4321 43.8425 35.211 43.7996 35.0868 43.816C34.4882 43.893 34.3938 43.893 34.6695 44.9389C34.7738 45.3325 35.5364 45.3225 35.3501 45.7792C34.9924 46.6623 36.0208 46.2637 36.371 47.7095C36.4207 47.9089 36.9398 47.8874 37.1112 47.7852C38.1942 47.1392 37.1584 47.0825 36.4058 46.0971C36.3089 45.971 36.833 45.6631 37.1137 45.9306C37.5981 46.3936 38.5295 46.1261 38.4078 46.5109C38.2513 47.0005 38.4302 47.4748 38.6463 47.948C38.9443 48.6015 40.226 48.2318 41.0582 48.5574C41.0159 48.6091 39.9553 49.9263 39.9578 49.983C39.9851 50.4662 38.7109 51.0592 37.9259 50.9192C37.0715 50.7665 36.5722 50.981 34.9179 51.4478C34.4062 51.4062 33.9293 51.3179 33.4748 51.3406C32.7743 51.3759 32.4166 51.2775 32.3843 50.9091C32.3645 50.7034 32.1633 50.6378 31.0207 50.012C31.2914 49.7193 32.5681 49.4973 32.2105 48.7466C31.8379 47.9669 33.7058 48.0073 32.9233 47.3663C32.28 46.8402 32.9233 46.6358 32.8289 46.3217C32.5458 45.3603 34.1703 45.1938 33.4176 44.7686C32.1359 44.0457 32.4241 43.5852 33.1047 43.3328C33.9641 43.0161 32.429 42.842 32.9134 42.3815C33.9268 41.4138 32.0018 41.2839 33.5344 40.7502C33.8474 40.7817 34.1554 40.8133 34.4882 40.8474C35.1464 40.5824 35.1489 40.1257 35.6333 39.8494C35.6581 39.5415 34.4584 39.0659 34.4783 38.6622C34.5279 37.5708 33.2388 37.5405 33.9616 36.9551C34.4236 36.5817 33.6735 36.6485 33.8051 36.0606C33.9194 35.5484 32.7718 35.5749 32.5234 35.6102C29.7762 35.9963 31.2715 34.3511 28.9416 34.9504C26.6167 35.5471 27.1458 35.9155 25.9709 36.8731C25.5536 37.2125 26.408 37.5342 25.3722 38.0995C25.0767 38.2597 25.2033 38.4313 25.6032 38.6104C26.4925 39.0079 26.7831 38.6256 27.578 38.343C27.8586 38.242 28.4523 38.3972 28.492 38.5839C28.8274 40.1093 27.4736 40.2834 28.7255 40.4297C29.0435 40.4663 29.3515 40.4827 29.4533 40.6707C29.5601 40.8701 29.6023 41.0707 29.3366 41.2473C28.3231 41.9198 28.0896 41.9286 26.7732 41.9488C26.3608 41.9551 26.6316 41.27 26.88 41.0883C27.6102 40.5509 27.2898 39.7257 26.4875 39.481C26.2466 39.4078 26.1572 39.2135 25.9709 39.0836C25.8144 38.9725 25.2853 39.0255 25.1462 39.1593C24.8357 39.4532 25.1363 39.539 23.9713 40.1837C22.6971 40.889 22.6325 41.1438 21.7408 41.2145C19.8902 41.3608 19.8828 41.7608 19.4282 40.9559C19.16 40.4802 18.5315 40.489 18.2757 40.6341C17.4386 41.111 17.774 41.3482 17.4933 42.1141C17.1927 42.9266 15.5161 42.9846 13.9835 42.7222C12.0485 42.3916 10.7668 43.8375 10.9531 44.6904C11.0848 45.2972 8.60831 45.6316 7.79855 45.7123C5.29974 45.9634 3.62806 45.5824 2.1402 45.5445C1.32796 45.5243 0.617562 45.4562 -0.070482 45.19C-0.547393 45.0045 -1.24786 44.9717 -1.83406 44.8531C-2.68356 44.6803 -3.36167 43.8564 -2.66369 43.1549C-2.1371 42.6276 -0.385939 43.0931 -0.157419 42.7436C0.00651908 42.4926 0.411397 42.3676 0.731822 42.1948C1.70055 41.6712 -0.552361 41.106 1.35777 40.0878C2.53266 39.4595 0.759145 39.0444 2.02097 38.7164C3.26293 38.3934 1.56393 37.3866 1.66826 36.9577C1.74526 36.6448 1.18389 36.3836 1.11931 36.0455C0.977729 35.3099 -0.00341606 34.7472 1.07212 34.6829C2.15262 34.6173 1.88684 34.5315 2.54011 34.1719C3.30019 33.753 2.59476 33.7455 2.60718 33.367C2.60718 33.3039 3.06173 33.3455 3.25051 33.4414C3.50139 33.5676 4.58934 34.4154 5.31464 33.5386C5.68226 33.0945 5.99027 33.3922 7.39864 33.4338C8.92128 33.4793 9.04051 34.0357 9.26903 34.2199C9.45284 34.3675 9.84033 34.3902 10.0763 34.2741C10.5731 34.0293 10.7768 33.6193 11.6188 33.5726C12.0783 33.1828 12.5379 32.6516 12.9477 32.9784C13.6258 33.5171 12.6571 33.5184 13.9413 34.1101C16.0576 35.0828 15.3347 35.4739 16.5345 35.3717C16.7878 35.3503 17.0486 35.3831 17.1406 35.4992C17.4237 35.8562 18.1142 36.0228 18.534 36.3079C19.1649 36.7356 19.8281 36.8328 20.777 36.5665C21.157 36.4593 21.6886 36.4921 22.086 36.4656C22.4189 36.1956 22.4313 35.8764 23.1268 35.802C23.4149 35.7717 23.6434 35.6203 23.9241 35.5496C24.8506 35.3137 24.3464 34.751 24.1775 34.6248C23.872 34.3977 23.4298 34.2173 23.0324 34.023C22.7145 33.8679 22.0339 33.9764 21.8327 34.1908C21.0949 34.9769 22.3493 35.9357 19.8108 34.7233C19.9201 34.2867 22.1307 34.018 21.0776 33.2358C20.7099 32.962 20.2703 32.9607 19.6245 32.9128C18.1689 32.803 16.4152 32.2681 16.3233 31.906C16.0551 30.8373 13.1663 30.3554 11.9045 29.9025C11.6908 29.8255 11.3009 29.8747 10.9109 29.8633C10.3644 29.5088 9.7832 29.1316 9.22184 28.767C10.0788 28.015 8.9039 27.3804 8.39221 26.9981C8.61079 25.9055 8.29285 26.3143 7.37629 25.6406C6.67334 25.1246 4.7036 26.2436 5.5829 25.0236C5.80149 24.7183 5.74684 23.9058 4.88989 23.8881C3.89881 23.8667 2.93505 23.0794 3.90378 22.788C4.10001 22.7287 4.38069 22.6517 4.41547 22.5621C4.74334 21.6979 5.92817 21.7597 7.1577 20.4816C7.49055 20.1372 7.10306 19.5682 6.72302 19.5001C5.80894 19.3361 5.12586 18.9841 4.30369 18.7456C3.78952 18.5967 4.49743 18.2094 4.74583 18.2245C5.67481 18.2851 6.72799 18.6611 7.09809 18.1905C8.94364 15.8337 7.33406 15.9939 8.4096 15.0527C8.9039 14.6187 9.03554 14.4181 8.80206 14.2919C8.45928 14.1077 7.4061 13.9639 7.82836 13.4656C8.25559 12.9622 9.12745 12.3225 8.73499 11.5289C8.61328 11.2804 10.2576 11.3788 10.1757 12.0273C10.1434 12.2947 10.7122 12.378 11.2264 12.2203C11.4226 12.1597 11.6089 12.0904 11.8523 12.0071C14.0208 12.9243 12.6198 13.3444 16.8599 12.7237C17.1505 12.6808 17.4188 12.5294 17.7143 12.6682C17.8758 12.7439 17.9255 12.8764 18.0472 12.9773C18.1888 13.0946 18.4893 13.0896 18.6036 12.9685C18.6706 12.8991 18.6831 12.8158 18.7402 12.7426C19.0855 12.3111 19.7487 12.9924 20.4442 12.5774C20.8788 12.3175 21.2961 12.1459 20.9732 11.8544C19.9846 10.9574 19.1277 11.2514 19.4779 10.5965C19.545 10.4704 20.0517 10.1537 20.7919 10.512C21.0403 10.6319 20.8118 11.3599 22.4735 11.7371C22.9678 11.8494 23.4646 11.9983 23.7031 12.2758C22.5182 12.0613 22.5331 12.0285 22.3021 12.5155C22.1953 12.7414 21.7979 12.807 21.5818 12.9622C21.4998 13.0202 21.5669 13.2448 21.7731 13.2422C23.0324 13.2296 23.7105 13.2486 23.554 13.0063C23.2659 12.5584 22.5306 12.3061 23.6981 12.2758C23.9316 11.9819 24.252 11.7068 24.3017 11.375C24.329 11.2009 24.6718 11.0798 24.9748 11.1088C27.3668 11.3334 27.0389 10.9082 28.4523 10.994C28.728 11.0104 30.7996 11.4721 30.7673 10.5297C30.7623 10.372 30.6828 10.2143 30.6307 10.0326C32.2651 9.52162 31.5075 9.67175 31.9919 9.29704C32.1633 9.16457 32.429 9.0649 32.6178 8.93747C33.1096 8.60439 32.3495 8.08459 31.7385 8.22337C31.6019 8.25491 31.5025 8.32556 31.3734 8.36972C30.9685 8.5085 30.422 8.37981 30.3376 8.12244C30.0594 7.26955 32.1682 7.52189 32.9979 7.96725C33.4251 8.19561 33.9865 8.35963 34.4957 8.54635C34.9055 8.69775 35.3402 8.67883 35.7823 8.49589C36.1499 8.34449 36.371 8.19435 36.53 8.2587C37.8614 8.80878 37.9235 8.78733 37.6875 9.29452C37.5285 9.63895 38.4103 9.74619 38.8251 9.60236C39.3442 9.42068 39.0064 9.18728 37.8887 7.98744C37.5459 7.61903 37.6775 7.5345 38.6711 7.13203C41.468 7.76665 42.0542 6.84311 42.9261 6.07098C44.5033 5.62309 45.3901 5.50323 46.175 4.99731C46.8506 4.5633 47.5436 5.15375 47.8268 4.8888C48.0355 4.69451 48.3037 3.82396 49.7494 4.14569C51.5651 4.54816 52.9561 4.19111 53.4653 4.4939C55.0401 5.43384 55.44 4.96324 56.6099 6.09116C57.3154 6.7712 57.9165 6.68919 59.7049 6.5012C64.9211 7.95211 61.4834 8.23346 65.6762 9.26045C66.5133 9.4661 66.8238 8.67 67.8198 8.66495C68.4483 8.66243 68.7538 8.9463 69.2332 9.06868C71.6351 9.68058 72.0773 9.43835 73.3614 9.92913C73.58 10.0124 74.0967 9.91147 74.1538 9.78656C75.3113 7.1825 73.9899 8.40757 73.662 7.72249C73.6074 7.61146 74.5512 7.44745 74.9164 7.4588C77.0699 7.52441 77.8201 7.64427 78.8062 7.22161C79.062 7.11185 79.3303 7.06769 79.6756 7.10049C79.8867 7.12068 80.2121 7.11816 80.3263 7.05381C81.4143 6.42929 82.8972 6.97559 82.7929 6.36242C82.6985 5.79972 82.4675 5.4351 82.4178 5.05534C82.2936 4.10279 83.1332 4.49264 84.6881 3.73439C85.247 3.46187 86.2405 4.16587 85.2644 4.27059C84.0795 4.39676 84.7129 4.82194 84.4819 5.12095C84.1044 5.60921 84.3751 5.97383 85.1402 6.29303C85.4879 6.43812 85.396 6.64756 85.3115 6.85195C85.0085 7.60642 86.7398 6.91881 86.7299 7.92057C86.7299 8.04043 86.6578 8.19435 86.8963 8.23472C87.8427 8.39495 89.1219 6.64882 89.9018 7.59632C90.7786 8.6599 89.1567 7.9395 91.6828 9.60362C91.8741 9.72979 92.495 9.61246 92.4553 9.97203C92.4255 10.2382 92.1026 10.5133 92.6267 10.7669C93.5656 11.2211 92.0231 11.5958 93.4588 11.9579C94.2139 12.1471 94.5914 12.3099 94.9541 12.2733C95.3317 12.2342 95.7092 12.1232 96.0743 12.137C96.4445 12.1509 96.7847 12.3086 97.1598 12.3477C97.6193 12.3957 98.8265 12.2834 98.5285 11.9415C98.3198 11.703 98.2801 11.4835 98.5334 11.2539L98.444 11.2778L98.4589 11.2753ZM105.322 21.0355C105.769 21.0973 105.585 20.7844 105.252 20.821C105.041 20.845 104.843 20.9043 104.641 20.9497C104.977 20.6797 104.969 20.353 105.2 20.0653C105.25 20.0047 104.907 19.8319 104.731 19.8432C103.591 19.9139 104.08 20.2558 102.801 20.3643C102.242 20.4123 102.453 21.0166 103.298 20.9813C105.523 20.8892 104.217 20.8841 105.322 21.0355ZM79.2036 42.4799C79.4073 42.5493 79.4023 42.7689 79.5166 42.9152C79.6457 43.078 80.0208 43.0982 80.2717 42.9543C80.5251 42.8105 80.6915 42.2869 81.7794 42.9796C82.2464 43.2773 82.4526 43.4338 82.7705 43.4691C83.153 43.512 83.4188 43.3353 83.3244 43.2205C82.8723 42.6692 81.7918 42.3071 81.5335 41.6914C81.5112 41.6359 81.2951 41.5968 81.1609 41.5577C78.1082 40.6682 79.9165 41.4113 77.7679 41.2183C77.1867 41.1665 76.6129 41.4353 75.9621 41.3659C75.2269 41.2877 75.5647 42.3437 76.8861 42.0926C78.3367 41.8163 77.1743 41.7923 79.2011 42.4787L79.2036 42.4799ZM90.6644 18.2637C90.5005 18.3343 90.4706 18.4794 90.3315 18.5728C89.9838 18.8024 89.2883 18.7771 89.2486 18.5236C89.2038 18.2195 88.789 18.0239 88.6301 17.7577C88.5009 17.5407 88.1407 17.5231 87.6688 17.6681C86.9783 17.8814 87.6266 18.1148 88.3668 18.6409C88.8809 19.0068 87.5247 19.1569 87.0975 19.3045C86.3424 19.5669 87.2167 20.2154 88.2649 19.9682C89.6634 19.6376 89.4498 19.1241 90.7563 19.1632C92.7782 19.225 91.7846 17.7817 90.6644 18.2624V18.2637ZM73.4484 42.7335C73.4732 42.5657 72.1617 42.138 70.7931 42.0522C70.5447 42.0371 70.2044 42.4055 70.6515 42.6629C71.4116 43.1007 71.7618 43.7353 73.0112 43.9435C73.1329 43.9636 73.2099 44.0608 73.3018 44.1251C74.0868 44.674 73.5303 44.8746 74.3923 45.1282C74.5438 45.1736 74.7748 45.055 74.8294 44.9124C75.2418 43.8375 73.2894 43.7694 73.4509 42.7335H73.4484ZM105.466 29.2754C104.634 28.9398 100.416 28.9461 100.67 29.3196C100.846 29.5769 100.886 29.4596 102.776 29.5946C104.445 29.7132 104.356 30.0614 106.157 30.0337C107.004 30.0198 107.697 30.1182 108.3 30.421C108.494 30.5181 108.936 30.4109 109.035 30.2545C109.639 29.2981 106.554 29.7145 105.466 29.2767V29.2754ZM56.1728 50.0512C56.6546 50.1306 56.5826 50.2984 57.3327 50.6164C57.8817 50.8485 58.4704 50.1811 57.9239 49.877C57.062 49.3976 57.6656 49.4657 57.1465 48.551C56.9726 48.2457 56.0486 48.1524 55.5667 48.3706C54.598 48.8072 54.8091 49.8266 56.1728 50.0512ZM93.4489 25.8778C93.2849 25.7516 89.9341 25.2987 89.1914 25.2621C88.1035 25.2066 88.1333 25.5851 88.3742 26.0872C88.6276 26.6146 89.338 26.0266 90.883 26.2474C92.1349 26.4266 94.1965 26.4543 93.4489 25.8778ZM82.7432 45.6606C82.6041 45.5193 81.7447 45.4915 81.5335 45.7073C80.5126 46.7494 84.0472 47.4622 83.5803 46.7771C83.5604 46.7494 82.8401 45.759 82.7432 45.6606ZM112.317 24.4735C111.942 24.3436 111.942 24.1417 111.805 23.9626C111.472 23.5248 111.45 24.3486 109.83 24.365C109.634 24.3676 109.378 24.4773 109.338 24.7095C109.264 25.1422 113.36 24.8356 112.319 24.4735H112.317ZM114.271 30.2027C112.22 30.1321 113.576 32.1041 115.099 31.3685C115.687 31.0846 114.522 30.9913 114.609 30.7553C114.654 30.6292 115.037 30.228 114.271 30.204V30.2027ZM100.406 27.9873C100.148 27.8762 99.8623 27.8434 99.5568 27.928C98.6005 28.1916 97.9547 27.9671 97.3287 27.9053C96.8146 27.8535 96.7624 28.2118 97.0257 28.2938C98.1087 28.6345 100.123 28.6509 100.406 27.9873ZM51.5353 43.5082C51.6272 44.0696 52.5388 44.3194 52.6829 44.134C53.2641 43.3896 51.4583 43.0376 51.5353 43.5082ZM94.507 40.0765C93.8637 39.5504 92.9173 39.7056 92.8626 39.8317C92.7086 40.1787 94.9342 40.426 94.507 40.0765ZM112.299 30.1649C111.875 30.0614 111.137 30.2709 110.97 30.5093C110.906 30.6027 111.092 30.773 111.296 30.7844C113.01 30.8802 112.58 30.233 112.302 30.1649H112.299ZM85.6692 22.9167C85.0532 22.3842 83.8783 22.4561 83.7218 22.5823C83.5827 22.6959 84.2584 23.121 85.2122 23.1084C85.3712 23.1059 85.5227 22.981 85.6668 22.9167H85.6692ZM91.5834 34.8595C90.9252 34.4861 90.108 35.1434 90.6967 35.3768C91.1239 35.5459 92.1026 35.1535 91.5834 34.8595ZM26.1646 34.7687C25.494 34.6476 25.1065 35.2847 25.8318 35.3263C26.5844 35.3705 26.8377 34.8898 26.1646 34.7687ZM89.8323 35.7162C89.7031 35.6115 88.8884 35.6581 89.0523 35.8474C90.1949 37.1772 90.1626 35.9824 89.8323 35.7162ZM116.981 30.614C116.574 30.2355 115.762 30.2885 115.754 30.5308C115.744 30.937 117.267 30.8777 116.981 30.614ZM105.608 11.6866C105.518 11.5466 105.476 11.4292 105.374 11.3283C104.989 10.9549 104.177 11.8771 104.994 11.8267C105.193 11.814 105.377 11.7421 105.608 11.6866ZM101.097 17.3464C100.903 17.1345 100.101 17.2404 100.165 17.5382C100.297 18.1413 101.427 17.706 101.097 17.3464ZM77.0898 37.2781C77.6238 37.4421 78.0138 37.0687 77.6139 36.8908C76.9457 36.5943 75.7882 36.8794 77.0898 37.2781ZM80.9995 38.9208C80.9995 39.2021 81.5012 39.3964 81.6304 39.3535C82.614 39.023 80.9995 38.4414 80.9995 38.9208ZM75.9224 39.3864C75.5994 39.3964 75.4902 39.7421 76.1459 39.9024C76.7768 40.0563 76.9234 39.3548 75.9224 39.3864ZM100.262 41.8453C100.354 41.7192 99.7356 41.4466 99.2587 41.5753C98.3273 41.8277 100.064 42.1166 100.262 41.8453ZM97.7361 41.8365C97.8156 41.8378 97.9596 41.7419 97.9745 41.6838C98.0093 41.5463 97.7833 41.4857 97.5771 41.4416C96.7599 41.2713 96.5835 41.81 97.7386 41.8352L97.7361 41.8365ZM77.9244 40.513C77.4947 39.9831 76.6352 40.4133 77.1494 40.619C77.6462 40.8183 78.0262 40.6392 77.9244 40.513ZM96.0669 28.9348C96.8096 28.9777 96.6705 28.3784 95.6546 28.661C95.3938 28.7329 95.826 28.9209 96.0669 28.9348ZM76.8737 45.629C76.5781 45.412 75.8205 45.5925 76.0043 45.7186C76.0913 45.7779 76.208 45.87 76.3123 45.87C76.6402 45.8688 77.0774 45.7792 76.8737 45.629ZM25.6604 15.1486L25.8417 15.194C25.8516 15.0855 25.8939 15.0969 25.6604 15.1486ZM94.6908 25.5636C94.6486 25.5359 94.589 25.4753 94.5517 25.4791C94.045 25.5245 94.117 25.5825 94.5318 25.6469C94.5641 25.6519 94.6362 25.5939 94.6908 25.5636ZM97.2617 33.4603C97.202 33.478 97.1424 33.4957 97.0828 33.5133C97.3213 33.6811 97.6566 33.5373 97.2617 33.4603ZM24.9649 34.5138C25.1512 34.5277 25.2431 34.3233 25.0742 34.2653C24.868 34.1934 24.6991 34.4949 24.9649 34.5138ZM111.807 27.3249C111.83 27.3299 111.894 27.287 111.937 27.2668C111.73 27.1571 111.552 27.2669 111.807 27.3249Z" fill="black"/>
</g>
<defs>
<clipPath id="clip0_54_945">
<rect x="0.359863" width="127" height="56" rx="15" fill="white"/>
</clipPath>
</defs>
</svg>
