<?xml version="1.0" encoding="UTF-8"?>
<svg id="_圖層_2" data-name="圖層 2" xmlns="http://www.w3.org/2000/svg" viewBox="0 0 511.29 443.86">
  <defs>
    <style>
      .cls-1 {
        fill-rule: evenodd;
      }
    </style>
  </defs>
  <g id="Layer_1" data-name="Layer 1">
    <path class="cls-1" d="M408.26,60.26c5.85,5.38,2.3.56,10.31-4.76.76-.5,1.98.66,2.02,1.22.65,8.26-3.16,11.95,4.86,10.03,2.34-.56,1.71-2.68,1.38-5.77-.76-7.18.03-8.33-2.17-10.94-1.37-1.62,5.04-3.25,9.04-2.73,4.29.57,3.98,3,4.18,10.11.11,3.86,5.42,3.17,7.87,6.12,2.49,3.01-6.59-.26-8.13,5.55-.61,2.29-1.59,4.49-3.69,5.27-4.14,1.53-6.15,2.62-8.18,1.74-5.17-2.25-8.59,3.32-9.59,4.19-2.68,2.33-3.83,4.94-2.22,8.45.88,1.92-.31,3.73-.99,5.49-1.54,4.01-6.85-2.98-6.97.5-.07,2.07-1.52,3.44-2.22,5.18-1.62,4.01,5.74,5.12,7.39.39.97-2.76,5.13-4.03,7.77-1.45,4.23,4.11,5.89-3.7,8.64-2.07,17.45,10.31.96,8.1,4.78,15.43,2.84,5.44,1.3,7.77,6.83,2.61,2.83,4.51,1.37,9.61,2.91,14.13,1,1.39,2.27.47,3.45.33,2.78-.33,11.43,2.45,6.95,7.03-3.34,3.41,2.47,6.44-3.21,8.62-10.92,4.19,2.33,5.86,9.36-2.11,1.46-1.66,3.35-2.94,5.13-4.46,2.49.68,4.91,1.32,7.32,1.99,3.67,1.03,6.73-3.42,7.09-7.28.31-3.28-3.19-2.72-4.64-3.04-.69-.15-.91-1.1-.4-1.24,2.7-.74,5.68-.26,8.19-1.95,1-.67,13.35,6.95,16.46-2.16,3.64-10.65,9.48-6.32,7.62-3.5-.34.52-.98.87-1.27,1.41-3.21,5.88,11.66.67,5.71,13.75-6.52,14.36-6.52,8.34-7.08,3.15-2.42-1.39-5.48-1.44-7.5-3.76-1.66-1.89-3.86-1.97-6.12-.93-2.02.92-6.71-2.88-7.47,2.79-.58,4.32,2.67,12.43-2.63,16.05-3.81,2.61-3.92,9.94.31,10.93,9.71,2.27,11.14,2.99,14.45-.11,2.65-2.49,4.48.09,6.29,3.26,1.22,2.14-2.24,6.15-5.53,6.26-7.06.23-6.81-.33-13.25-2.29-13.9,6.5-10.84,4.6-12.33,7.98,12.1,1.66,10.9.73,7.97,5.17-1.22,1.85-.23,4.21,1.82,4.28,1.87.07,4.5-.5,4.55.36.21,2.98-3.54,2.35-5.2,5.94.39-.4-3.94.16-4.49.25-3.48.55-3.56,5.35-2.56,5.97,5.92,3.64,4.03,5.85,17.2,6.3,2.5.09,5.36-3.54,9.28,1,.23.26.02,1.35-.31,1.57-1.54,1.05-3.88.13-5.14,1.96-1.52,2.21-5.25,1.9-4.63,3.93.46,1.49,2.62,1.4,5.93,2.07.83.17,1.3,1.62.01,2.15-8.06,3.33-9.85,5.12-14.38,3.91-5.13-1.37-4.95,1.65-9.98,4.07-1.75.84-2.34,1.93-1.14,3.72.18.26-.23,1.34-.54,1.43-3.17.91-7.38-1.71-15.61,3.13-11.34,6.67-29.38-2.35-34.96-1.69-15.57,1.85-4.03-.81-16.18,10.48-5.76-.74-3.69-2.93-12.59-.14-4.43,1.39-.79,9.84,4.12,9.08,6.73-1.04,6.2,4.5,11.35,1.44.66-.39.69-1,.19-1.65v.02c10.76-3.18,12.29.3,17.12-2.31.04-.02.8.84.79,1.28-.02,1.19-.37,4.58-.37,4.58-.72-1.55-1.98-1.34-3.15-.78-1.11.53-.68,3.32-.61,4.58-6.23,1.27-7.82,1.18-6.71,2.95.17.27.32.67.56.74,2.83.84,4.76,2.55,6.52,5,2.35,3.28,9.43-.1,7.13-2.65-2.71-3-3-2.16-2.86-4.39.04-.57,2.16-.45,2.71-.3,6.78,1.85,3.54-.85,11.13-.01,1.71.19,1.74,2.98.91,3.66-2.96,2.42-4.61,2.51-7.57,5.59-.72.75-.26,3.23.66,3.31,3.69.3,6.47,2.33,9.24,4.5,7.76,6.08-8.95,8.69-4.44,12.81.93.85,1.97,1.6,2.85,2.5,2.54,2.59-3.67,7.35-7.58,7.48-3.92.13-3.62,2.96-4.48,4.04-2.22,2.81.06,4.28,2.93,8.06.67.88-.5,1.75-1.28,1.79-1,.06-5.18-1.18-3.99,1.7.24.59.69,1.09.93,1.67,1.92,4.69-9.63-.46-13.98-1.33-2.68-.54-5.1-2.54-7.56-4.03-5.99-3.62,4.34-6.55,1.21-8.62-1.23-.82-2.45-.09-3.62.35-4.68,1.76-6.43-1.55-11.57-5.09-6.96-4.79-6.73,7.13-8.79,9.08-1.3,1.23-3.39,1.58-5.02,2.51-1.97,1.13-3.71-.26-5.54-.23-7.65.11-12.57-11.67-19.61-9.92-3.34.83-3.12,5.98,6.98,9.18,5.56,1.76,9.83,10.12,6.5,10.03-1.64-.05-4.74-2.33-8.42,2.54.28,2.45,2.2,4.34,1.95,7.14-.28,3.15,1.94,5.82,3.12,8.68.1.23,1.22.33,1.64.09,1.05-.61,1.51-2.05,2.99-2.13,2.72-.15,3.46,2.55,3.53,3.55.19,2.95-1.72,3.18-4.85,4.82-4.3-.83-6.31,2.19-8.43,5.03l.39.14c-3.28-6.42-7.75-.38-15.66-4.21-.53-.26-1.92.43-2.41,1.06-1.38,1.8-.46,3.73-3.97,4.86-.71.23-2.04-1.45-2.2-2.68-.75-5.48-1.18-3.43-9.6-3.66-2.55-.07-5.54-.95-6.31-.11-.54.58-.57,1.23,0,1.7,1.22.99,2.37,2.26,3.78,2.8,7.38,2.82.71,8.76,5.17,8.21,1-.12,3.71-1.92,4.25,2.83.56-.68-.64.5-1.57.59-2.5.25-4.3,3.02-7.07,2.08-2.41-.83-2.43-3.63-3.95-5.21-11.41-11.83-9.7-9.54-12.9-14.03-.65-.91.44-2.91,1.64-2.7,1.69.3,3.04.14,4.4-.92,1.49-1.15,5.41,1.86,6.42-3.51.94-4.96-6.54.21-6.9-5.19-.49-7.31-13.67-11.43-6.91.84,2.93,5.32,2.75,4.54-3.84,4.57-2.17.01-2.55-.82-9.22-4.71-2.66-1.55-5.02,2.2-3.14,4.31,9.25,10.35,11.31,11.84,12.4,15.53.67,2.25-1.58,3.21-2.65,2.71-5.34-2.52-5.33-3.55-7.37-1.09-.83,1-1.54,2.53-2.89,1.43-.78-.64-2.17-2.09-1.69-3.03,3.56-6.9-5.11-6.73-11.21-18.37-1.76-3.36,4.14-2.39,5.49-2.36,2.24.05,1.63-4.92-1.2-8.07-4.87-5.4-3.43-7.37-7.03-6.82-1.68.26-4.23,2.22-7.92-1.22-.98-.92-3.09-.5-3.12.61-.12,3.65-2.98,4.51-5.54,5.72-2.24-1.2-4.48-2.42-6.74-3.6-1.61-.85-3.52,1.5-3.07,2.5,1.42,3.14,1.35,6.89,3.95,9.57,2.51,2.6-2.08,6.65-2.39,14.57-1.44,1.1-1.44.84-.84,1.28.21-.5.42-1,.62-1.5,4.56.92,7.99,3.48,11.03,7.24-5.22,3.78-8.67,5.52-6.96,8.11,19.53,29.48,9.7,3.38,17.28,30.61.28,1,2.21,6.44,4.04,5.38,6.76-3.91.37-6-.17-20.21l-.3.3c11.49,7.4,8.36,19.81,13.77,20.94,4.69.98,5.21,7.79,2.8,8.67-3.63,1.32-3.28,5.29-3.28,5.29-2.01-2.69-10.32-9.27-12.25-7.52-3.5,3.17,6.74,13,9.02,25.37,1.2,6.54,6.33,8.64,4.45,11.89-1.44,2.5-5.97-.15-6.65-4.05-1.35-7.66-.64-11.73-3.08-12.69-3.71-1.46-5.53-5.26-8.99-7.02-.78-.4-.78-1.94-.11-2.5,2.27-1.91,3.72-2.16,3.08-3.19-.85-1.37-4.6.36-5.93-3.64-5.33-16.11-4.73-18.5-10.79-11.14-1.48,1.8-.59,4.23.56,6.27,2.25,3.97,3.04,12.33.46,14.35-3.79,2.97-3.4-13.64-12.84-12.59-2.4.27-2.99-1.08-7.32-11.5-4.18-10.05-1.2-7.8-12.1-13.25-1.99-.99-2.68,1.51-2.42,2.51,3.38,13.1,9.33,8.08,5.15,20.02-1.03,2.95-6.83,1.85-8.49.4-5.58-4.89-12.4,5.5-11.85-.4.74-7.87,6.11-4.51,5-11.69-2.31-14.96-6.08-12.83-7.25-21.6-.5-3.7-4.88-3.41-3.36-7.23,4.93-12.39-8.53-10.59-4.47-14.7.44-.44,1.03-.75,1.4-1.24,1.03-1.36.29-3.64-1.24-3.84-2.9-.39-5.09.36-7.07-1.99-1.22-1.45-2.28-3.08-3.67-4.34-1.13-1.03-3.04-1.03-3.91-2.6.16-3.33,5.91-6.82,3.9-9-1.61-1.74-2.07-3.39-1.62-5.85.31-1.67-.97-3.63-1.53-5.46-.69-2.29.56-5.27,3.4-5.59.62-.07.66,2.32.94,3.45.71,2.89,5.13.14,4.82-3.6-.08-1-.8-5.24-3.61-6.32-8.33-3.19-3.89-1.37-7.47-6.41-3.28-4.61-5.04-2.03-8.65.43-.57.39-2.34-.29-2.44-.94-.19-1.26-.16-2.56-.46-3.79-.44-1.83-5.46-1.13-6.5.57-6.24,10.25-13.59,5.93.82,13.45,5.06,2.64,8-1.92,9.82,3.42,4.66,13.71,3.5,17.23-2.89,18.05-.93-1.45-3.19-5.58-4.67-5.5-2.88.17-4.79-1.15-6.42-3.3-.32-.43-1.21-.77-1.71-.64-2.41.61-2.79.61-1.68,8.9.42,3.12,3.49,3.04,2.74,6.66-1.44,7,2.7,3.84,4.11,15.3.2,1.58,2.29,1.41,2.98.6,4.36-5.12.19-5.57-2.84-13.38-.39-1,1.72-3.44,2.85-1.32,1.95,3.67,5.7,1.55,5.21,4.6-.63,3.88.09,7.64.96,11.39,1.2,5.18,6.36,2.25,9.71,4.83-.17.41-4.44,10.85-4.43,11.3.11,3.83-5.02,8.53-8.18,7.42-3.44-1.21-5.45.49-12.11,4.19-2.06-.33-3.98-1.03-5.81-.85-2.82.28-4.26-.5-4.39-3.42-.08-1.63-.89-2.15-5.49-7.11,1.09-2.32,6.23-4.08,4.79-10.03-1.5-6.18,6.02-5.86,2.87-10.94-2.59-4.17,0-5.79-.38-8.28-1.14-7.62,5.4-8.94,2.37-12.31-5.16-5.73-4-9.38-1.26-11.38,3.46-2.51-2.72-3.89-.77-7.54,4.08-7.67-3.67-8.7,2.5-12.93,1.26.25,2.5.5,3.84.77,2.65-2.1,2.66-5.72,4.61-7.91.1-2.44-4.73-6.21-4.65-9.41.2-8.65-4.99-8.89-2.08-13.53,1.86-2.96-1.16-2.43-.63-7.09.46-4.06-4.16-3.85-5.16-3.57-11.06,3.06-5.04-9.98-14.42-5.23-9.36,4.73-7.23,7.65-11.96,15.24-1.68,2.69,1.76,5.24-2.41,9.72-1.19,1.27-.68,2.63.93,4.05,3.58,3.15,4.75.12,7.95-2.12,1.13-.8,3.52.43,3.68,1.91,1.35,12.09-4.1,13.47.94,14.63,1.28.29,2.52.42,2.93,1.91.43,1.58.6,3.17-.47,4.57-4.08,5.33-5.02,5.4-10.32,5.56-1.66.05-.57-5.38.43-6.82,2.94-4.26,1.65-10.8-1.58-12.74-.97-.58-1.33-2.12-2.08-3.15-.63-.88-2.76-.46-3.32.6-1.25,2.33-.04,3.01-4.73,8.12-5.13,5.59-5.39,7.61-8.98,8.17-7.45,1.16-7.48,4.33-9.31-2.05-1.08-3.77-3.61-3.7-4.64-2.55-3.37,3.78-2.02,5.66-3.15,11.73-1.21,6.44-7.96,6.9-14.13,4.82-7.79-2.62-12.95,8.84-12.2,15.6.53,4.81-9.44,7.46-12.7,8.1-10.06,1.99-16.79-1.03-22.78-1.33-3.27-.16-6.13-.7-8.9-2.81-1.92-1.47-4.74-1.73-7.1-2.67-3.42-1.37-6.15-7.9-3.34-13.46,2.12-4.18,9.17-.49,10.09-3.26.66-1.99,2.29-2.98,3.58-4.35,3.9-4.15-5.17-8.63,2.52-16.7,4.73-4.98-2.41-8.27,2.67-10.87,5-2.56-1.84-10.54-1.42-13.94.31-2.48-1.95-4.55-2.21-7.23-.57-5.83-4.52-10.29-.19-10.8,4.35-.52,3.28-1.2,5.91-4.05,3.06-3.32.22-3.38.27-6.38,0-.5,1.83-.17,2.59.59,1.01,1,5.39,7.72,8.31.77,1.48-3.52,2.72-1.16,8.39-.83,6.13.36,6.61,4.77,7.53,6.23.74,1.17,2.3,1.35,3.25.43,2-1.94,2.82-5.19,6.21-5.56,1.85-3.09,3.7-7.3,5.35-4.71,2.73,4.27-1.17,4.28,4,8.97,8.52,7.71,5.61,10.81,10.44,10,1.02-.17,2.07.09,2.44,1.01,1.14,2.83,3.92,4.15,5.61,6.41,2.54,3.39,5.21,4.16,9.03,2.05,1.53-.85,3.67-.59,5.27-.8,1.34-2.14,1.39-4.67,4.19-5.26,1.16-.24,2.08-1.44,3.21-2,3.73-1.87,1.7-6.33,1.02-7.33-1.23-1.8-3.01-3.23-4.61-4.77-1.28-1.23-4.02-.37-4.83,1.33-2.97,6.23,2.08,13.83-8.14,4.22.44-3.46,9.34-5.59,5.1-11.79-1.48-2.17-3.25-2.18-5.85-2.56-5.86-.87-12.92-5.11-13.29-7.98-1.08-8.47-12.71-12.29-17.79-15.88-.86-.61-2.43-.22-4-.31-2.2-2.81-4.54-5.8-6.8-8.69,3.45-5.96-1.28-10.99-3.34-14.02.88-8.66-.4-5.42-4.09-10.76-2.83-4.09-10.76,4.78-7.22-4.89.88-2.42.66-8.86-2.79-9-3.99-.17-7.87-6.41-3.97-8.72.79-.47,1.92-1.08,2.06-1.79,1.32-6.85,6.09-6.36,11.04-16.49,1.34-2.73-.22-7.24-1.75-7.78-3.68-1.3-6.43-4.09-9.74-5.98-2.07-1.18.78-4.25,1.78-4.13,3.74.48,7.98,3.46,9.47-.27,7.43-18.68.95-17.41,5.28-24.87,1.99-3.44,2.52-5.03,1.58-6.03-1.38-1.46-5.62-2.6-3.92-6.55,1.72-3.99,5.23-9.06,3.65-15.35-.49-1.97,6.13-1.19,5.8,3.95-.13,2.12,2.16,2.78,4.23,1.53.79-.48,1.54-1.03,2.52-1.69,8.73,7.27,3.09,10.6,20.16,5.68,1.17-.34,2.25-1.54,3.44-.44.65.6.85,1.65,1.34,2.45.57.93,1.78.89,2.24-.07.27-.55.32-1.21.55-1.79,1.39-3.42,4.06,1.98,6.86-1.31,1.75-2.06,3.43-3.42,2.13-5.73-3.98-7.11-7.43-4.78-6.02-9.97.27-1,2.31-3.51,5.29-.67,1,.95.08,6.72,6.77,9.71,1.99.89,3.99,2.07,4.95,4.27-4.77-1.7-4.71-1.96-5.64,1.9-.43,1.79-2.03,2.31-2.9,3.54-.33.46-.06,2.24.77,2.22,5.07-.1,7.8.05,7.17-1.87-1.16-3.55-4.12-5.55.58-5.79.94-2.33,2.23-4.51,2.43-7.14.11-1.38,1.49-2.34,2.71-2.11,9.63,1.78,8.31-1.59,14-.91,1.11.13,9.45,3.79,9.32-3.68-.02-1.25-.34-2.5-.55-3.94,6.58-4.05,3.53-2.86,5.48-5.83.69-1.05,1.76-1.84,2.52-2.85,1.98-2.64-1.08-6.76-3.54-5.66-.55.25-.95.81-1.47,1.16-1.63,1.1-3.83.08-4.17-1.96-1.12-6.76,7.37-4.76,10.71-1.23,1.72,1.81,3.98,3.11,6.03,4.59,1.65,1.2,3.4,1.05,5.18-.4,1.48-1.2,2.37-2.39,3.01-1.88,5.36,4.36,5.61,4.19,4.66,8.21-.64,2.73,2.91,3.58,4.58,2.44,2.09-1.44.73-3.29-3.77-12.8-1.38-2.92-.85-3.59,3.15-6.78,11.26,5.03,13.62-2.29,17.13-8.41,6.35-3.55,9.92-4.5,13.08-8.51,2.72-3.44,5.51,1.24,6.65-.86.84-1.54,1.92-8.44,7.74-5.89,7.31,3.19,12.91.36,14.96,2.76,6.34,7.45,7.95,3.72,12.66,12.66,2.84,5.39,5.26,4.74,12.46,3.25,21,11.5,7.16,13.73,24.04,21.87,3.37,1.63,4.62-4.68,8.63-4.72,2.53-.02,3.76,2.23,5.69,3.2,9.67,4.85,11.45,2.93,16.62,6.82.88.66,2.96-.14,3.19-1.13,4.66-20.64-.66-10.93-1.98-16.36-.22-.88,3.58-2.18,5.05-2.09,8.67.52,11.69,1.47,15.66-1.88,1.03-.87,2.11-1.22,3.5-.96.85.16,2.16.14,2.62-.37,4.38-4.95,10.35-.62,9.93-5.48-.38-4.46-1.31-7.35-1.51-10.36-.5-7.55,2.88-4.46,9.14-10.47,2.25-2.16,6.25,3.42,2.32,4.25-4.77,1-2.22,4.37-3.15,6.74-1.52,3.87-.43,6.76,2.65,9.29,1.4,1.15,1.03,2.81.69,4.43-1.22,5.98,5.75.53,5.71,8.47,0,.95-.29,2.17.67,2.49,3.81,1.27,8.96-12.57,12.1-5.06,3.53,8.43-3,2.72,7.17,15.91.77,1,3.27.07,3.11,2.92-.12,2.11-1.42,4.29.69,6.3,3.78,3.6-2.43,6.57,3.35,9.44,3.04,1.5,4.56,2.79,6.02,2.5,1.52-.31,3.04-1.19,4.51-1.08,1.49.11,2.86,1.36,4.37,1.67,1.85.38,6.71-.51,5.51-3.22-.84-1.89-1-3.63.02-5.45l-.36.19ZM435.89,137.62c1.8.49,1.06-1.99-.28-1.7-.85.19-1.65.66-2.46,1.02,1.35-2.14,1.32-4.73,2.25-7.01.2-.48-1.18-1.85-1.89-1.76-4.59.56-2.62,3.27-7.77,4.13-2.25.38-1.4,5.17,2,4.89,8.96-.73,3.7-.77,8.15.43ZM330.74,307.59c.82.55.8,2.29,1.26,3.45.52,1.29,2.03,1.45,3.04.31,1.02-1.14,1.69-5.29,6.07.2,1.88,2.36,2.71,3.6,3.99,3.88,1.54.34,2.61-1.06,2.23-1.97-1.82-4.37-6.17-7.24-7.21-12.12-.09-.44-.96-.75-1.5-1.06-12.29-7.05-5.01-1.16-13.66-2.69-2.34-.41-4.65,1.72-7.27,1.17-2.96-.62-1.6,7.75,3.72,5.76,5.84-2.19,1.16-2.38,9.32,3.06ZM376.88,115.65c-.66.56-.78,1.71-1.34,2.45-1.4,1.82-4.2,1.62-4.36-.39-.18-2.41-1.85-3.96-2.49-6.07-.52-1.72-1.97-1.86-3.87-.71-2.78,1.69-.17,3.54,2.81,7.71,2.07,2.9-3.39,4.09-5.11,5.26-3.04,2.08.48,7.22,4.7,5.26,5.63-2.62,4.77-6.69,10.03-6.38,8.14.49,4.14-10.95-.37-7.14ZM307.57,309.6c.1-1.33-5.18-4.72-10.69-5.4-1-.12-2.37,2.8-.57,4.84,3.06,3.47,4.47,8.5,9.5,10.15.49.16.8.93,1.17,1.44,3.16,4.35.92,5.94,4.39,7.95.61.36,1.54-.58,1.76-1.71,1.66-8.52-6.2-9.06-5.55-17.27ZM436.47,202.93c-3.35-2.66-20.33-2.61-19.31.35.71,2.04.87,1.11,8.48,2.18,6.72.94,6.36,3.7,13.61,3.48,3.41-.11,6.2.67,8.63,3.07.78.77,2.56-.08,2.96-1.32,2.43-7.58-9.99-4.28-14.37-7.75ZM238.02,367.6c1.94.63,1.65,1.96,4.67,4.48,2.21,1.84,4.58-3.45,2.38-5.86-3.47-3.8-1.04-3.26-3.13-10.51-.7-2.42-4.42-3.16-6.36-1.43-3.9,3.46-3.05,11.54,2.44,13.32ZM388.09,176c-.66-1-14.15-4.59-17.14-4.88-4.38-.44-4.26,2.56-3.29,6.54,1.02,4.18,3.88-.48,10.1,1.27,5.04,1.42,13.34,1.64,10.33-2.93ZM344.99,332.8c-.56-1.12-4.02-1.34-4.87.37-4.11,8.26,10.12,13.91,8.24,8.48-.08-.22-2.98-8.07-3.37-8.85ZM464.05,164.87c-1.51-1.03-1.51-2.63-2.06-4.05-1.34-3.47-1.43,3.06-7.95,3.19-.79.02-1.82.89-1.98,2.73-.3,3.43,16.19,1,12-1.87ZM471.92,210.28c-8.26-.56-2.8,15.07,3.33,9.24,2.37-2.25-2.32-2.99-1.97-4.86.18-1,1.72-4.18-1.36-4.37ZM416.1,192.72c-1.04-.88-2.19-1.14-3.42-.47-3.85,2.09-6.45.31-8.97-.18-2.07-.41-2.28,2.43-1.22,3.08,4.36,2.7,12.47,2.83,13.61-2.43ZM219.35,315.74c.37,4.45,4.04,6.43,4.62,4.96,2.34-5.9-4.93-8.69-4.62-4.96ZM392.35,288.54c-2.59-4.17-6.4-2.94-6.62-1.94-.62,2.75,8.34,4.71,6.62,1.94ZM463.98,209.98c-1.71-.82-4.68.84-5.35,2.73-.26.74.49,2.09,1.31,2.18,6.9.76,5.17-4.37,4.05-4.91ZM356.77,152.53c-2.48-4.22-7.21-3.65-7.84-2.65-.56.9,2.16,4.27,6,4.17.64-.02,1.25-1.01,1.83-1.52ZM380.58,247.19c-2.65-2.96-5.94,2.25-3.57,4.1,1.72,1.34,5.66-1.77,3.57-4.1ZM117.21,246.47c-2.7-.96-4.26,4.09-1.34,4.42,3.03.35,4.05-3.46,1.34-4.42ZM373.53,253.98c-.52-.83-3.8-.46-3.14,1.04,4.6,10.54,4.47,1.07,3.14-1.04ZM482.83,213.54c-1.64-3-4.91-2.58-4.94-.66-.04,3.22,6.09,2.75,4.94.66ZM437.04,63.52c-.36-1.11-.53-2.04-.94-2.84-1.55-2.96-4.82,4.35-1.53,3.95.8-.1,1.54-.67,2.47-1.11ZM418.88,108.38c-.78-1.68-4.01-.84-3.75,1.52.53,4.78,5.08,1.33,3.75-1.52ZM322.23,266.36c2.15,1.3,3.72-1.66,2.11-3.07-2.69-2.35-7.35-.09-2.11,3.07ZM337.97,279.38c0,2.23,2.02,3.77,2.54,3.43,3.96-2.62-2.54-7.23-2.54-3.43ZM317.53,283.07c-1.3.08-1.74,2.82.9,4.09,2.54,1.22,3.13-4.34-.9-4.09ZM415.52,302.56c.37-1-2.12-3.16-4.04-2.14-3.75,2,3.24,4.29,4.04,2.14ZM405.35,302.49c.32.01.9-.75.96-1.21.14-1.09-.77-1.57-1.6-1.92-3.29-1.35-4,2.92.65,3.12ZM325.59,292c-1.73-4.2-5.19-.79-3.12.84,2,1.58,3.53.16,3.12-.84ZM398.63,200.23c2.99.34,2.43-4.41-1.66-2.17-1.05.57.69,2.06,1.66,2.17ZM321.36,332.55c-1.19-1.72-4.24-.29-3.5.71.35.47.82,1.2,1.24,1.2,1.32-.01,3.08-.72,2.26-1.91ZM115.18,90.96l.73.36c.04-.86.21-.77-.73-.36ZM393.09,173.51c-.17-.22-.41-.7-.56-.67-2.04.36-1.75.82-.08,1.33.13.04.42-.42.64-.66ZM403.44,236.1c-.24.14-.48.28-.72.42.96,1.33,2.31.19.72-.42ZM112.38,244.45c.75.11,1.12-1.51.44-1.97-.83-.57-1.51,1.82-.44,1.97ZM462,187.47c.09.04.35-.3.52-.46-.83-.87-1.55,0-.52.46Z"/>
  </g>
</svg>