<?xml version="1.0" encoding="UTF-8"?>
<svg id="_圖層_2" data-name="圖層 2" xmlns="http://www.w3.org/2000/svg" viewBox="0 0 362.92 763.95">
  <defs>
    <style>
      .cls-1 {
        fill-rule: evenodd;
      }
    </style>
  </defs>
  <g id="Layer_1" data-name="Layer 1">
    <path class="cls-1" d="M26.47,308.17c-7.74-11.38,1.93-14.88-2.7-19.64-2.54-2.61-7.88,2.27-8.35,6.47-.84,7.59-2.34,15.09-1.82,22.84.36,5.38-1.14,10.75-.64,16.23.22,2.43-.84,4.98-1.24,7.08.22,2.64,2.73,3.02,3.61,5,.64,14.76,1.13,16.68-.86,18.43-7.47,6.56-.79,58.95-4.37,67.57-2.79,6.72,2.44,7.52.42,16.85-2.5,11.59,2.25,39.8,1.61,60.12-.16,5.07-.57,3.54-4.41,3.11-2.94-.33-4.17,1.79-4.41-9.32-.02-1-4.36-87.3-2.42-101.16.33-2.38-.19-6.15-.61-8.52-1.6-9.09,4.46-134.3,4.45-134.36-1.94-12.17,4.69-18.08,2.25-23.39-.82-1.79-.83-3.71-.55-5.64,2.39-16.78,3.3-33.71,5.35-50.52,4.12-33.75,15.46-93.58,17.21-81.49.21,1.49-.14,6.65,1.4,5.88,2.47-1.25,4.01-4.37,4.15-5.96.24-2.61,6.08-23.87,5.75-27.97-.05-.58.22-1.33.61-1.76,2.04-2.3,2.62-5.15,2.71-8.01.19-6.67,3.02-10.06,6.39-15.64,4.14.19,4.16,6.75,7.42,4.23,3.16-2.45,3.2-6.69,5.03-7.91,4.8-3.21,3.31-7.59,6.09-10.44,9.22-9.47,5.69-8.13,9.52-6.82,6.23,2.13,7.73-11.28,12.68-13.72,10.42-5.16,10.78-1.71,16.37-8.61.51-.63,1.85-1.27,2.49-1.03,6.28,2.32,12.57.97,18.87.35,5.21-.52,2.87.9,7.47,3.19,8.25,4.11,13.95,5.88,18.91,2.28,4.86-3.53,4.96,4.91,11.5,4.01,3.33-.46,6.08,3.37,11.1,1.68,2.93-.98,11.16,2.95,12.9.47,1.94-2.75,4.9-2.54,7.65-3,4.5-.75,1.34,4.7,6.73,7.14,4.16,1.88,6.87,5.65,11.64.43,2.98-3.27,10.34-4.19,13.37-2.57,2.31,1.23,4,3.19,7.73,3.43,1.1.07,7.69.03,8.58-.45,4.11-2.21,9.1-.55,12.96-2.62,4.39-2.36,8.03-.3,11.94.58,2.49.56,3.98,8.49,6.38,5.04,4.95-7.1,1.59,2.27,5.73,1.57,13.46-2.28,12.68-6.7,17.17-4.19,1,.56,4.36,3.2,6.85.33,2.13-2.46,2.76-2.54,3.76-1.72,5.08,4.18.65-1.76,10.19.46,4.22.98,6.7-2.54,8.64,3.29,1.58,4.77,4.19,3.06,6.11,5.44,4.4,5.46,7.76,8.12,16.14,26.92,10.68,23.97,11.36,194.15,10.94,203.8-.33,7.56-2.08,8.46-.58,12.21,1.82,4.56-1.32,5.48-.49,15.13.29,3.38-.81,18.74-.74,19.97.06,1.06-.03.91-2.93,11.16-1.45-2.55-.5-2.27-.49-27.88,0-9.81-8-5.6-7.99.35.07,34.97-2.73,51.38-.9,61.24,1.62,8.75-3.13,7.83-2.66,17.72.53,10.96-2.33,8.04-2.77,15.83-.18,3.2,5.31,6.55-.55,10.28-2.54,19.07-1.87,16.83-4.17,19.81-.57.74-1.84,1.17-2.03,1.93-1.18,4.58-4.15,8.64-3.74,13.71,1,12.25-6.18,10.55-6.79,19.21-2.12,29.88-2.5-2.14-8.4,41.53-1.3,9.64,0,8.45-2.72,15.98-1.75,4.84-6.02-1.25-6.46,12.51-.1,3.19-2.22,5.85-1.85,9.28.11,1-4.57,46.27-6.19,16.39-.1-1.8,1.25-3.63.05-5.5-.86-1.34-2.7-.44-2.69.76.06,7.29-2.55,7.62-3.82,17.59-.8,6.35-3.98,44.01-5.7,38.07-3.53-12.12,8.76-48.31-2.36-40.57-1.19.83-4.3,13.22-4.11,14.62.66,4.9-1.5,9.37-2.22,14.05-.69,4.5-3.95,18.3-4,37.02,0,.65-1.18,3.43-1.72,3.16-3.03-1.53-1.44-4.76-1.23-7.65.81-11.26,2.71-4.35,2.36-12.87-.05-1.25-1.95-4.84-5.35-.68-2.11,2.58.54,6.45-1.92,6.64-.56-12.42-.69-14.74-.64-17.18.46-22.9.79-22.98.09-24.83-1.03-2.77-5.57-3.27-7.34.57-4.28,9.31-1.08,15.78-3.87,30.19-1.8,9.29.84,18.47-2.72,23.55-.35.5-.76,1.25-.63,1.75,1.08,4.15-1.04,8.19-.21,12.39,1.51,7.68-1.76,7.89-2.19,14.86-8.65,141.98-7.94-5.78-5.49-17.18,1.29-6,.29-12.07.73-18.1,2.16-29.8-3.18-20-3.33-18.39-2.04,22.02-1.26,22.69-2.71,26.63-1.92,5.24,1.21,4.19-.87,12.19-5.38,20.63-6.72,45-8.42,78.67-.07,1.36-1.82,1-1.86.18-.19-3.79-1.37-7.5-.82-11.35.12-.87.18-1.97-.24-2.66-2.89-4.78-1.23-7.39-2.02-13.06-.94-6.71,3.43-16.36-2.69-19.7-3.59-1.96-5.06-17.51-6.84,22.03-.89,19.62.22,56.27-3.28,49.21-2.34-4.72-.72-3.26-3.79-33.13-.23-2.24-4.82-5.17-5.26,1.42-.77,11.75-1.52,23.5-2.3,35.7-.96-.71-2.12-1.14-2.19-1.7-2.68-20.68,1.73-17.98.39-29.55-2.03-17.58.86-30.87-2.18-39.1-.42-1.15-.62-2.62-.28-3.76.95-3.26.1-6.35-.56-9.44-.83-3.88-.11-10.77-2.19-11.87-3.97-2.11-2.41,28.61-2.81,38.74-.16,4-5.7-2.8-5.89,1.82-1.71,41.3-1.8,58.38-1.8,58.38-.1,2.94-2.32,6.59-1.27,12.23.45,2.41-.23,5.03-.89,7.56-1.2-42.53.68-66.28-5.93-62.59-1.89,1.06-1.03.31-1.65,29.08-.02,1.16-1.62,3.45-2.01,2.47-5.66-14.41.11-30.97-2.13-46.29-1.25-8.6-8.35-5.2-8.36,9.22,0,3.78-1.34,7.44-.35,11.36.6,2.38.24,5.13-.19,7.63-1.82,10.42.52,49.29-3.18,40.95-3.68-8.36-2.19-1.67-2.92-15.61-3.49-66.19-2.01-61.88-4.61-63.19-2.72-1.37-2.43,7.23-2.44,8.23-.2,23.12-3.52,19.36-3.56,14.29-.08-12.02,1.11-18.44-3.3-25.27-1.96-3.03-2.76-6.39-2.3-10.07.51-4.08-1.08-8.28.64-12.32.27-.64.06-1.04-2.72-12.99-.17-.73-1.84-1.02-2.43-.42-.89.91-1.86,1.77-2.6,2.79-4.55,6.23,2.69,39.94-2.88,34.59-1.15-1.11-2.68-2.25-2.29-3.96,1.2-5.25-1.31-10.05-1.58-15.12-.14-2.64-4.81-4.44-5.83-3.32-1.64,1.79-1.85,4.74-4.68,5.62-.58.18-3.05,13.67-1.21,19.67.25.82-.17,1.84-.3,2.98-3.25-1.75-4.49-7.76-5.49-8.54-6.8-5.37-2.47-23.84-6.01-31.3-1.45-3.06,1.23-7.11-3.34-13.67-.53-.76-1.01-1.77-1.01-2.66,0-5.67-3.76-10.08-5.04-15.31-.25-1-3.45-1.26-3.43.89.08,13.64.74,14.83-.5,18.04-6.36-16.31-1-39.94-9.65-41.08-5.52-.73,4.52,41.82,1.45,44.9-.23-.23-.64-.45-.65-.68-.16-5.74-2.06-11.29-1.9-17.07.03-.93-.07-1.98-.47-2.79-1.6-3.29-1.55-6.84-1.81-10.33-.84-11.46-3.31-11.62-3.6-20.72-.42-13.19-5.35-13.45-6.76-22.75-1.15-7.62-10.05-10.16-11.23-7.01-2.3,6.18-1.16,12.81-.67,23.75.06,1.24-1.83,1.21-2.05.4-2.72-9.82-1.35-6.33-1.46-10.24-.89-30.37-2.92-19.44,2.68-25.48-6.56-4.45-3.67,13.3-9.32-68.05-.68-9.78,1.52-10.72.2-15.18-1.89-6.44-1.79-46.84-1.8-47.84-.13-21.14-8.43-.59-7.39-17.38.39-6.41,7.09-1.81,6.98-8.56-.24-14.69,1.7-9.16-.4-18.04-1.31-5.54-6.51-2.38-6.32-9.79.07-2.98-1.12-8.83.3-15.22,2.44-11.04-.15-15.9.04-19.72,1.11-22.87,2.42-26.84-2.42-27.75-2.43-.46-2.43,2.23-5.3,15.5l.36.17ZM51.71,531.47c-1.33-.58-2.06.93-1.81,2.3.69,3.77,5.36-.76,1.81-2.3Z"/>
  </g>
</svg>