<?xml version="1.0" encoding="UTF-8"?>
<svg id="_圖層_2" data-name="圖層 2" xmlns="http://www.w3.org/2000/svg" viewBox="0 0 362.81 932.39">
  <defs>
    <style>
      .cls-1 {
        fill-rule: evenodd;
      }
    </style>
  </defs>
  <g id="Layer_1" data-name="Layer 1">
    <path class="cls-1" d="M12.01,626.68c2.93-6.76-4.64-6.54-3.13-12.24,1.22-4.59-2.07-6.35-3.54-9.43.88-2.99,4.4-3.51,5.85-6.02.25-.43,1.12-.48,1.68-.77,7.71-3.93-3.85-10.19-5.66-11.67-3.31-2.7,3.83-4,5.89-9.5.89-2.39-1.4-3.02-2.38-7.02,3.83-.19,8.1.33,7.15-3.43-.77-3.04-6.57-3.81-3.36-7.44,1.88-2.12-1.47-4.5-.76-6.18,1.55-3.68-1.11-6.43.81-7.57,1.46-.87,4.42.05,4.12-2.84-.33-3.18-9.49-.27-7.16-4.68,3.74-7.05-10.59-8.03-7.72-13.2,1.49-2.69,2.25-5.88,5.54-7.27,4.76-2.02-.33-6.19,4.04-7.4,1.26-.35,9.05-3.28,6.3-5.12-1.31-.88-2.63-1.74-4.03-2.46-1.11-.57-2.77-.6-3.41-1.45-2.05-2.73-4.72-2.84-7.68-2.65-1.15.08-2.23-1.62-1.91-2.78,2.85-10.22,1.62-7.89,8.03-14.33-.21-.55-1.96-4.52-1.46-4.78.48-.26,1.34-.66,1.54-.46,2.39,2.27,5.46,1.34,8.21,1.86-.16-.49-.23-.31,1.39,2.08,2.23,3.28,8.54,5.76,8.49,1.88-.1-7.84-6.63-5.86-7.64-6.17,1.51-2.04,4.06-1.35,6.01-2.27,3.83-1.79.78-7.91-3.88-6.58.16.35.05-1.7.25-2.54.8-3.4-.05-4.5-3.64-4.46-2.64.03-3.07.08-3.17,3.34-.02.67-.41,2.38-1.1,2.32-5.61-.46-6.32-.56-7.04-1.7-1.33-2.1-3.38-3.79-3.9-6.39,3.04-1.06,5.77-2.97,9.15-2.52.9.12,2.57-2.03,1.94-2.79-1.51-1.82-1.15-.8-7.07-1.09-4.48-.22-2.04-1.77-.97-5.34.51-1.69,2.56-3.22.93-5.2-1.21-1.47-2.94-.68-4.47-.69-3.24-.02-2.57-7.95-2.2-9.86,1.11-1.35,2.43-.6,3.61-.72,1.53-.16,2.36-1.39,1.56-2.64-2.69-4.19-.05-2.79.55-6.71.74-4.81-3.24-5.42-4.51-6.32-.45-.32-1.07-1.22-.93-1.43,1.51-2.42.28-4.81.2-7.22-.08-2.29,3.15-1.82,10.18-3.59,4.5-1.14,13.68,4.16,11.51-4.57-1.75-7.04-1.25-5.25-3.9-6.66-1.75.75-2.88-1.96-4.23-.85-.78.64.31,2.05.71,1.97,3.75-.75,4.4-2.83,1.78,3.29-1.1,2.58-3.63.9-4.81.22-2.56-1.47-4.29.74-6.4.58-3.39-.26-2.65-2.78-1.65-3.55,3.67-2.82,6.58-3.27,6.04-5.28-.48-1.79-2.95-.86-6.02-.9-3.31-.05-3.12-4.39-4.02-7.79-.54-2.05-4.22-4.17,1.18-4.55.14-.01.41-.32.38-.39-.33-.73-.68-.2-3.1.59,2.49-5.31,1.07-3.89,7.86-7.46,2.71-1.42-.82-7.84-4.01-8.92-2.33-.79-4.07-4.51-3.75-5.09,1.78-3.23,1.27-7.93,3.62-9.29.45,2.7.47,4.25,1.47,3.87,5.16-1.97-3.82-2.05-.79-6.23,1.23-1.7,3.98-2.05,5.86-.09,3.54,3.68,16.86,8.31,15.47,4.73-.68-1.75-1.59-3.3-.79-5.41.38-1,1.88-7.47-.86-7.61-4.2-.2-7.64.49-10.48-3.2-3.8-4.93-8.4-1.36-9.77-4.73-.78-1.94.22-4.15-.1-6.27-.15-1.03,3.53-1.25,4.07-1.94,5.49-6.99,9.43,2.47,21.87-5.89.47-.31.43-1.75.25-2.59-.46-2.08-2.85-2.41-3.91-4-2.62-3.97-3.15-5.62-4.79-4.76-4.53,2.38-.58,2.87-10.46.21.36.31,2.95-1.7,3.32-2,.55-.42.14-2.4-.5-2.51-1-.18-8.12-.72-8.01-3.6.06-1.49,2.69-1.04,6.85-.81,3.22.18,1.87-2.54,4.34-2.76,2.37-.21,3.76-.13,2.53-5.16-.96-3.92-7.55.34-9.45-1.9-1.89-2.24-4.81-1.51-6.98-2.77-1.02-7.12-2-3.76-2.88-8.85-.14-.83,1.06-1.86,1.86-1.7,1.21.24,2.13,1.58,3.51,1.02,1.58-.64,1.85-2.21,1.26-2.91-2.16-2.55-3.77-.92-5.62-4.69-.68-1.4-.74-4.99,4.98-4.42,7.46.74,5.73-4.4,12.23-4.33,2.68.03,4.81-1.67,7.34-2.05,2.5-.38,5.01-.69,7.51-1.08.2-.03.46-1.57.27-1.68-11.41-6.65-11.42-.06-20.99-4.48-.31-.14-5.09.56-5.6.6-.87.06-2.06-1.28-1.59-1.86,1.69-2.09,1.39-3.92,0-6.06-2.35-3.62,2.3-4.05,3.71-4.61,1.63-.65,1.78-2.6.16-3.66-1.28-.84-2.83-1.25-4.15-2.04-.81-.49-.59-2.32.93-2.81.76-.24,2.42.1,4.65.43,4.31-6.02,1.62-6.74-2.59-10.84-1.83-1.78-1.26-5.6,1.22-7.18,1.05-.68,2.34-.98,3.09-2.11,1.87-2.82,1-7.5-1.76-9.3-.53-.35-1.17-.51-1.71-.84-4.28-2.56-2.71-6.62-.38-7.53,3.04-1.18,9.2-2.32,8.88-4.23-.45-2.71-6.72,3.94-4.74-6.5-2.64-.89-5.53-1.04-6.78-4.51-.91-2.52,2.8-3.52,5.36-3.91,5.62-.85,1.74-4.1,7.01-5.41,3.53-.87,3.78-2.34,2.95-3.47-1.04-1.4-3.59-.92-10.13-2.16-1.95-.37-4.88-3.59-3.5-5.64,2.21-3.27,8.26-1.61,6.17-5.47-7.06-13.04-6.9-9.3-1.15-18.24,1.7.77,5.15,2.83,5.95.57,1.93-5.43,2.2-5.47.68-8.03-3.07-5.16-5.78,1.52-8.69-2.18-.79-1-.4-2.71.51-3.35,1.73-1.21,3.72-.66,5.56-1.05,1.62-.35,2.58-2.39,1.57-3.67-.98-1.24-2.16-2.3-3.24-3.46-2.77-2.97,7.44-2.26-1.23-6.87-4.48-2.39-3.18-7.31,2.01-8.81,3.41-.98,3.97-1.93,3.19-5.37-.82-3.63-4.43.66-6.35-1.59-3.5-4.09.47-6.9-1.8-11.22,4.07-9.29.07-2.53-1.77-17.85-.12-1-2.45-19.91-6.34-26.79.3-.39.57-.89.67-.86,2.65.89,5.73,1.2,7.1,4.14,4.32,9.27,2.86,9.2,5.4,8.89.78-.1.92-1.84.67-2.52-3.94-10.95-3.01-6.08.44-10.57,2.65-3.47.77-7.87,8.19,1.7,2.26.67,4.38,1.31,6.46,1.93,14.06,20.23,7.45,8.02,11.07,18.85.24.71,1.28,1.14,2.12,1.84.5-1.39,1.15-3.88,2.24-4.21,8.85-2.67,5,14.03,11.6,12.73,7.17-1.42-3.56-15.07,2.54-16.57,1.97-.48,3.32-1.85,4.85-2.97,2.17-1.6-1.78-2.77-1.65-4.55.36-4.99-5.66,0-12.26-2.51-2.63-1-2.17-3.78-3.91-5.14-.37-.29-.35-1.16-.37-1.77-.08-2.36,10.17,5.11,12.1-1.27.27-.9.32-2.05,1.32-2.24,7.44-1.38,5.27,5.82,12.95,6.19,8.21,13.39,12.21,8.6,24.48,20.43.89.86,2.15,1.37,3.31,1.88,7.01,3.1,12.77,12.78,22.33,18.2,1.15-5.67,2.92-10.8,1.87-16.31-.1-.52.53-1.13.64-1.73.16-.89.58-2.2.16-2.65-2.42-2.59-2.32-5.87-2.77-8.99-.94-6.47,5.79-9.1-.1-12.9-.74-.48-.37-1.75.31-2.5.79-.88,2.32-1.06,2.51-3.02-6.52-7.54-5.67-4.89-6.38-15.72-.09-1.34,1.4-2.7,2.41-2.19,3.12,1.59,6.78,1.87,9.67,4.03.75.56,2.29-1.98,4.25-4.58,9.87,8.59,12.97,10.17,15.08,15.98.31.86.88,1.91,1.62,2.3,4.06,2.12,5.21,6.28,7.16,9.87,2.03,3.74,5.46,1.12,5.88,5.37.54,5.53,1.94,9.88-2.75,10.52-2.23.31-4.36-1.23-6.59-.26-.29.12-.76.3-.78.48-.05.61-.15,1.42.18,1.8.59.69,1.45,1.53,2.25,1.6,20.75,1.74,10.43-12.76,21.02-14.09,2.58-.32,3.58-4.04,5.57-4.87,2.49-1.05,2.76-2.27,2.84-4.36.38-10.13,7.74-6.32,11.29-10.92,1.74-2.26,4.1-3.73,6.79-4.78,2.16,3.53,1.83,7.36,1.66,11.07,4.6.67,5.43.54,5.63,1.65.46,2.6-4.17-.85-4.46,4.52-.16,3.05,2.01,3.78,3.29,2.67.47-.41.8-.98,1.29-1.36.73-.57,1.99-.19,2.43.64,2.86,5.37-5.49,4.65-1.58,10.81.86,1.35,1.45,3.14,2.67,3.92,2.3,1.47,5.73,6.88,5.81,14.34.01,1.08,1.97,2.26,2.95,1.69,4.44-2.55-2.45-5.16,5.4-9.86.46-.27,1.64-.29,1.7-.12,1.75,4.55,10.46,5.07-1.87,9.2.88,6.47,4.21,2.88,6.57,3.67,2.97.99,5.53.77,8.01-1.37.84-.72,2.6-.33,3.51-1.01,1-.75,7.32-5.59,6.62-7.43-1.21-3.22-4.95-5.94-8.27-4.96-6.05,1.78-12.66-2.96-8.87-2.95,1.25,0,2.68.5,3.64-.55,1.82-2,3.84-2.86,6.66-2.83,2.1.02,4.21-1.69,6.33-1.75,2.13-.06,4.29.97,6.55,1.55,2.73,2.44,1.21,21.29,6.24,16.94.46-.39.84-1.07,1.34-1.17,2.01-.4,2.92,4.99,2.89,7.25-.07,5.91-.56,9.39,2.38,11.73,3.47,2.76,1,6.2,1.63,11.81,2.33,20.57,3.52,14.04,3.79,26.24.06,2.83,1.71,9.23,3.57,7.81,2.4-1.83,1.13-14.35,4.7-32.69.79-4.06,2.26-8.02,2.76-12.11.46-3.78.01-30.09,2.85-39.06,2.15-6.77-2.43-4.35.93-18.68.72-3.09,1.66-6.12,2.51-9.19,13.32,8.72,6.8,23.46,10.77,32.3.34.77.29,2.02-.11,2.75-2.41,4.35-.42,3.75,2.8,11.06,1.18,2.67-1.09,4.47-3.46,9.57-1.92,4.14,3.41,5.23,4.41,5.66,1.94.84.35,4.4-.66,4.8-3.67,1.43-5.65,3.83.1,14.89,1,.36,4.45,1.49,4.57,2.75.53,5.98,5.59,9.18.34,11.34-3.54,1.46-2.62,6.97-1.17,10.21,3.53,7.85-.04,8.07,2.38,12.86,1.83,3.62,7.18,5.52,6.36,14.31-.55,5.9,1.72,5.28,2.12,9.06,2.5,23.25-6.84,7.72,5.02,27.36.84,1.4,1.49,2.82,1.38,4.49-.4,6.21,1.62,11.93,3.69,17.61,3.02,8.29,3.71,19.84,3.09,21.64-5.64,3.73-10.21,4.61-3.97,9.34,8.49,6.43,4.63-2.79,8.78,32.19.62,5.21-1.16,7.42-2.8,8.59-5.27,3.74,2.42,4.4,1.99,12.69-.36,7,.63,14.02-.2,21.02-.1.86.22,2.11.82,2.64,3.1,2.76,4.69,6.83,8.15,9.25l.11-.16c-4.63,1.41-3.59-.1-6.13-.92-2.92-.94-3.61,4.33-3.85,7.39-.48,6.19-4.33,3.42-4.12,9.07.09,2.52,1.4,3.1,4.9,6.17,3.43-4.42,10.24-4.43,11.64-2.36,3.02,4.46-7.67.24-9.4,5.58-.83,2.58-5.62,2.64-6.62,2.46-4.04-.73-10.32,2.69-10.18,3.58.09.58.16,1.52.5,1.66,4.18,1.63,7.47,4.72,11.36,6.83,1.59.86,1.22,3.84-.5,4.73-.55.29-1.24.32-1.79.61-5.8,2.95,3.95,9.07,6.38,8.45,1.19-.3,18.14-3.58,16.8,2.27-.56,2.45.11,5.1-1.27,7.37.03,0,.24-.02.24-.02-4.43-1.38-4.62-6.06-8.1-5.55-.27.04.22,2.39.16,2.69-.11.54-.6,1.4-.98,1.43-10.54.95-6.04,5.1-10.73,4.4-6.37-.96-9.04-2.84-10.72.05-2.62,4.51,3.79,4.33,2.1,9.37,1.17,4.37,2.58,8.73,6.81,11.06,3.15,1.73,4.48,5.3,7.68,6.91.36.18.03,1.75.02,2.68,1.01.71-1.68-2.39-5.83-1.09-2.18.68-4.39.16-6.46.95-3.67,1.4-5.01-2.63-11.87.31-3.2,1.37.37,5.41,3.69,6.34,3.57,1,5.61,3.71,7.4,6.55,2.25.12,4.08-3.53,6.7-2.07-1.98,7.46,4.65,4.15,6.24,8.26.18.46-4.2,2.8-4.67,3.13-1,.71-.3,3.37,1.66,3.33,1.75-.03,3.25-1.82,5.34-.27,1.14.84,3.08.5,4.59.93,3.33.96,2.41,4.54,7.8,4.37,1-.03.38,1.89-.11,1.95-6.69.85-3.92,11.84-6.54.29-24.15-8.43-8.56-.83-20.07-8.04-3.25-2.04-2.23,1.98-3.57,4.73-1.19,2.43-.52,4.86,1.66,5.33,3.98.86,7.42,3.72,11.77,3.18.6-.07,1.4,0,1.84.33,2.83,2.17,6.26,3.08,9.35,4.68,1.43.74,2.21,4.47-.46,5.41-8.88,3.15-5.4-.92-12.01,1.22-2.49.81-2.87-1.5-5.81-2.43-3.15-1-5.87,3.07-3.87,5.31,2.53,2.83,5.1,5.63,7.66,8.45,1.73.28,3.93-.88,4.95,1.7.17.42,1.09.88,1.57.79,2.57-.45,5.12.52,7.54.28,4.28-.44,10.12,4.17,6.04,9.08-5.58-1.01-9.56-2.54-12.33,1.29-2.28,3.16-7,2.55-6.2,5.75.16.67,1.99.49,2.59.15,5.61-3.06,7.63,1.19,15.32,2.91,1.03.23,2.93,1.41,2.34,3.49-.69,2.46-3.4.87-5.84.73-1.87-.11-1.96,2.55-1.48,3.55,1.06,2.19,4.58,2.13,4.19,4.61-.9,5.65-5.31-.08-7.01,9.09-.8,4.34-.55,3.4,5.2,6.11.99.47.22,1.56-.49,1.78-3.57,1.1-1.8-1.52-5.23,5.51-3.23,6.62-12.63.53-12.41,10.47.07,3.02.45,5.82,2.53,6.82,7.06,3.38,3.29.41,9.89.49,5.8.06,5.75,4.21,3.06,6.51-3.84,3.29-5.22,9.93-1.85,14.5,2.24,3.04,2.04,6.38.55,6.68-5.36,1.06-.58,6.72-5.02,9.92-1.44,1.04-2.69,1.41-3.84-.49-.44-.73-1.99-.39-2.35.33-1.21,2.47.48,7.45,2.86,6.59,3.18-1.15,5.56.27,7.82,2.23,1.01,1.12.55,2.39.38,3.63-.52,3.87,1.57,4.05,3.27,8.73,3.16,8.71,1.74,8.28.08,13.98-2.01-2.41-4.95-7.71-11.46-3.01-2.04,1.48-1.79,5.85.6,6.33,3.52.7,6.16,2.92,9.55,4.45.82,3.19,2.12,13.67.93,16.73-1.77,4.56,1.9,5.21.31,12.13-.62,2.69-4.16.86-8.72.62-2.26-.12-3.75,3.72-1.98,4.87,8.47,5.51,10.73,5.94,10.93,9.78.52,10.13,1.36,8.14.67,11.32-1.54,7.1.94,5.2.53,18.03-.43,13.47,1.51,16.6-2.09,19.37-2.45,1.89-4.47,4.92-3.15,7.32,3.88,7.05.64,15.27,1.45,18.55,1.99,8.06-.96,19.07-1.32,23.72-.65,8.47-6.2,11.09-3.94,20.23,1.16,4.7-3.29,8.48-2.71,12.8.37,2.79-1.23,5.48-2.47,8.1-1.83,3.88,1.3,9.88-7.5,6.67-5.32-1.94-6.6,4.6-10.24-.28-2.11-2.82-4.14,1.25-6.75-1.9-.81-.97-1.54-2.01-2.43-2.91-3.33-3.37-8.05,4.71-2.1,6.59,10.84,3.43,8.78,2.39,11.26,6.04-1.16.27-4.16.28-3.24,2.94.36,1.03,2.51.82,2.8-.45.68-3-1.98-3.59,9.32.27,8.33,2.85.35,5.07,3.6,10.8.61,1.07-.32,2.71-1.42,2.92-5.61,1.09-8.31.75-8.63,4.13-.19,2.03.6,3.84,1.73,5.28.64.81,2.27.84,3.44,1.26,1.61.58,2.37,2.28.38,3.39-7.89,4.39-10.88.94-15.38.18-1-.17-3.12,1.95-1.97,3.45,2.79,3.66.91,6.41-.72,10.97-8.24-.81-4.76-.54-10.08.61-4.19.91-6.08,9.09.63,5.52,4.27-2.27.03,5.23,4.29,4.13,2.37-.61,2.98-2.36,4.87,4.36l.29-.25c-14.23.56-9.01-3.57-18.55,5.59-.54.52-.96,1.09-1.49.65-2.7-2.29-1.36-3.22-2.08-6.85-.47-2.37-4.96-3.96-7.26-2.68-1.55.87-2.02,3.67-.73,4.98.65.66,1.62,1,2.23,1.68.26.29.11,1.51-.1,1.58-2.98,1.02-5.71,4.44-5.45,8.05-.15-1,.58-1.73-.8-2.43-6.24-3.17-1.33-6.84-7.6-6.94.62,1.05-.63-1.05-1.35-1.86-1.75-1.98-2.3-.37-2.68,2.17.58-1-4.57-.6-6.73,3.81-1.31,2.67-1.7,6.28-5.44,7.02-3.78.74-1.47,7.05-7.37,5.24-1.41-.44-4.79,2.28-3.26,4.43.71,1,4.5,3.73,2.57,5.29-1.96,1.59-4.94-.42-5.84-1.53-2.45-3.04-4.49-.58-6.83-1.2-7.65-2-10.05-4.61-12.7.37-1.59,3-1.96-.61-4.51-3.04-7.08-6.76,1.77-7.24-4.22-13.49-1.97-2.06-3.57,2.26-4.84,4.38-5.21,8.7-7.92-3.99-9.76,2.69-.2.72-.07,2.23-.66,2.63-2.28,1.52-4.86-10.01-3.14-16.5.31-1.16.6-6.66-2.56-5.9-6.45,1.56-2.77,2.37-6.58-.3-2.51-1.75-3.59,1.6-3.53,2.6.23,3.64,2.38,4.16,2.39,9.07.02,6.57,7.15,1.28,6.34,7.21-.25,1.81-1.96,1.28-5.08.97-.59,2.12-1.18,5.81-3.18,5.12-13.31-4.59-14.97-8.92-19.84-1.48-1.38,2.1-1.28,2.92-2.36,2.39-4.7-2.31-.47-8.81-3.14-10.76-.55-.4-2.12.56-2.09,1.31.19,3.68-.89,6.88-3.57,9.7-1.86.11-1.68-2.12-2.78-3.04-2.52-2.1-3.63.97-4.24,4.09-.89,4.52-7.12,8.01-8.01,2.68-.21-1.25-.17-2.56-.5-3.78-.57-2.14-3.7-4-6.05-3.78-4.4.41-3.94,6.83-4.22,10.62-.29,3.9-1.79,1.11-4.76,7.94-.83,1.91-1.62,7.2-3.92,7.11-.27-.01-.75-.12-.78-.26-.18-.93-.36-1.88-.37-2.82-.22-35.8.04-38.1-8.18-36.12-2.02.49-2.56,2.57-4.28,3.26-2.73-2.15-5.31-13.39-8.61-2.5.37-.35-2.89-1.22-3.38-1.34-4.3-1.06-3.89-7.03-7.6-7.81-1.51-.32-2.72,1.64-4.48.48-1.01-.66-2.35-.92-3.58-1.13-3.3-.56-5.35-3.32-8.26-4.57,0,0-4.32-8.76-10.66-13.16-8.19-5.68-1.24-14.34-8.76-12.17-1.23.35-2.41.82-3.66.05-1.61-.99-3.7-1.68-4.16-3.65-1.19-5.05-5.96-7.15-7.33-20.27-1.03-9.89-9.87-4.42-10.27-11.76-.17-3.11,1.67-3.01,4.12-4.49,2.52-1.52,2.11-3.52.05-5.36-4.57-4.1.09-6.02-3.36-9.41-2.82-2.78-8.2,1.77-6.47-3.48,4.17-12.64,14.95-14.58-1.49-17.28-1.36-.22-3.22-2.22-3.03-3.31.27-1.53,1.04-3.02,1.04-4.53.02-3.2-2.93-6.25,1.21-7.05,1.09-.21-.15.33,2.73-.81,1.91-3.8,3.94-9.32.08-11.05-3.21-1.45-4.64,1.2-6.28-.74-.88-1.04-1.18-3.64-.44-4.49,1.21-1.4,5.16-.76,4.76-3.61-.3-2.09-1.19-1.96-4.28-2.91-1.5-4.61-.91-9.49-2.54-14-.8-2.22.18-4.41,1.03-6.49,1.81-4.43-2.88-5.67-.69-10.11.63-1.28,2.69-10.76-.5-15.71-2.19-3.39-3.66-10.77.5-11.78,3.15-.76,3.77-6.04.43-7.41-1-.41-5.42-1.04-4.33-3.75,2.72-6.8,4.95-4.57-.72-11.56-3.17-3.91,6.83-2.56,4.91-5.9-1.89-3.29-2.99-7.01-5.71-9.86-2.87-3.01,3.44-3.78,2.63-6.93-2.27-8.88-3.37-7.18,2.65-9.91ZM345.1,646.38c.21-.03.42-.06.62-.09-.15.95.03,1.18.54.68-1.15-.64-1.19-1.35-1.17-.58ZM222.99,885.03c-1.24.87-1.72.1-1.31-.64.25-.45,1.09-.4,1.26.34.37,1.67-1.48-.48.05.3ZM313.57,528.63c-.12.84-.26.91-.43.23.22.05.43.11.65.16-.73-.97-1.4-2-2.21-2.9-2.58-2.92-7.77,5.55,1.98,2.52ZM345.6,504.02c.54,1.73-.94,2.93-1.14,4.45-.2,1.51,2.02,2.75,3.11,1.05,1.82-2.85-.71-4.08-2.21-5.28.6-1.08,1.28-2.13,1.78-3.25.4-.91-.24-2.25-.98-2.23-7.98.26-13.25-2.91-12.79.53.88,6.54,4.22,4.02,5.22,3.55,2.06-.96,4.03.1,7.01,1.17ZM317.27,347.97c1.71-.34,2.46,1.48,3.9,1.74.88.16,1.31-.43,1.15-.95-.55-1.88-.19-1.59-5.12-.78,2.4-12.74,1.71-8.68,1.49-11.22-.06-.69-1.65-1.65-2.19-1.29-2.89,1.9-5.76,3.82-8.64,5.74-3.83-.33-5.76,3.81-9.44,4.02-1.14.07-1.35,1.73-1.08,3.19.48,2.7,5.46,4.94,8.53,1.43,3.66-4.18,3.82-.42,7.4-2.89,1.89-1.3,4.62-1.07,4,1.03ZM154.79,63.05c-.32,1.37-1.91,3.52,2.76,6.07,3.1,1.7,6.73,1.87,8.32-1.37,2.61-5.32-2.77-7.7-3.29-9.72-1.79-6.86-20.42-11.17-19.77-2.23.45,6.21,13.21,2.06,11.98,7.24ZM249.62,63.76c-4.6-.54-5.22,5.92-2.27,5.66,2-.18,5.58-2.81,8.54,1.26.5.68,1.56,1.19,2.43,1.32,7.49,1.14,9.54,10.29,10.97-3.51.7-6.79-6.52-6.03-9.39-4.9-3.73,1.47-9.27.29-10.27.17ZM149.25,45.38c1.71.16,2.82-.64,3.06-1.43.46-1.51-.87-2.01-1.7-2.93-3.36-3.74,5.35-5.59,1.94-8.51-2.3-1.97-2.68-1.87-5.76.36-1.61,1.17-5.92,1.35-4.79,4.56,2.67,7.58,1.99,7.47,7.25,7.96ZM336.63,542.18c1.07-.36,1.55-2.6.71-3.17-1.82-1.24-3.58-2.61-5.54-3.57-2.22-1.09-4.89.21-7.25-1.17-1.58-.92-5.26,2.29-3.37,4.96.8,1.12,1.93,1.52,3.29,1.18,7.16-1.75.89,5.59,12.16,1.77ZM232.6,75.57c-1.39-.98-4.33-1.04-5.22.31-.6.91.59,3,2.18,3.67,1.16.48,2.56.58,3.53,1.3,3.23,2.38,6.82-.35,10.11.86.16.06.89-.87,1.03-1.43,1.69-6.6-1.57-6.57-2.57-5.86-6.16,4.42-7.9,1.98-9.06,1.16ZM340.62,571.72c-1.41.08-9.69-.25-6.38,3.89,3.25,4.07,6.25.43,7.69,4.37,3.29,8.98,6.76-8.97-1.31-8.26ZM349.93,762.24c-3.41-6.96-7.94-3.96-7.89-1.8.33,14.28,10.03,6.17,7.89,1.8ZM322.74,814.92c1.93.61,11.65,4.68,8.93-2-1.75-4.31-1.48-.94.08-3.92,2.1-4.02-5.39-5.06-7.32.7-.5,1.48-.96,2.97-1.69,5.22ZM342.29,736.01c-3.59,7.13,3.16,10.64,4.42,9.25,3.74-4.15,2.98-6.35,1.07-8.13-1.73-1.62-4.43-3.23-5.49-1.11ZM23.51,413.91c-1.71-2.51-7.81-6.18-7.85-3.52-.09,5.46.3,6.47,2.14,7.24,1,.42,9.35,1.62,5.71-3.72ZM10.13,270.95c-.78,2.41,10.49,5.44,12.98,5.05,2.12-.33.59-4.63-1.62-4.72-4.53-.18-10.42-3.26-11.36-.33ZM14.63,226.35c.48,2.93,1.41,3.77,4.24,3.8,16.45.15-5.58-11.98-4.24-3.8ZM337.69,793.57c-2.86,1.12-2.58,4.9-.3,5.76,10.45,3.92,8.85-9.12.3-5.76ZM298.74,831.72c-2.33.24,1.19,8.12,9.87,3.17,1-.57,2.69-4.46-9.87-3.17ZM18.67,201.71c3.03,5.75,11.34,3.71,10.01-.76-1.86-6.26-6.52-1.83-10.01.76ZM301.67,379.12c-1.74,2.49.56,2.99,2.46,2.38,1.16-.38,2.18-1.42,3.33-1.53,1.1-.1,2.27.67,3.43.96,1.68.43,2.51-2.83.89-3.1-1.2-.19-2.45-.12-3.62-.41-2.69-.67-2.68-3.75-6.49,1.69ZM347.76,600.59c-2.35-1.57-6.63-.12-5.79,2.89,2.51,8.94,9.2-.61,5.79-2.89ZM138.42,14.02c-2.31.92-.4,6.03,3.32,4.83,6.62-2.13,3.66-7.63-3.32-4.83ZM29.74,111.22c5.33,2.66,6.15-7.89.29-5.51-4.27,1.73-5.33,3-.29,5.51ZM279.32,555.06c-4.05-.41-7.73,3.4-4.68,4.9,2.52,1.23,4.81.57,7.03-.77,1-.61,0-3.89-2.34-4.13ZM25.89,359.63c-.82-.9-1.77-1.68-2.71-2.45-.62-.5-1.85.21-1.96,1.1-1.2,9.85,8.02,5.02,4.67,1.35ZM164.51,884.18c-.27-.89-2.3-1.23-2.93-.17-3.81,6.45,6.46,11.94,2.93.17ZM330.71,733.74c-3.21,2.58-1.1,6.54.94,6.31,3.59-.39,1.34-8.15-.94-6.31ZM12.95,433c5.83-1.46,7.89-1.71,7.61-2.71-.16-.56-.42-1.53-.7-1.55-2.89-.23-5.63.26-7.9,2.23-.66.58.29,2.2.99,2.02ZM252.06,893.07c-1.53-1.13-5.23-1.83-6.57.09-.6.86,2.3,3.62,6.89,3.09.97-.11.47-2.6-.32-3.18ZM21.27,235.82c-3.06-2.3-6.76,1.43-4.48,3.14,6.23,4.68,5.73-2.21,4.48-3.14ZM310.74,824.65c-.36.21-.42,1.02-.5,1.58-.02.14.43.36.69.51,2.85,1.58,6.52-.4,5.36-2.02-1.38-1.93-3.51-1.23-5.55-.06ZM323.69,271.84c2.89,1.09,5.1-1.68,3.97-4.11-1.24-2.65-6.9,3-3.97,4.11ZM304.38,802.62c-1,.4-1.72,2.51,3.29,3.46,2.64.5,5.02-6.8-3.29-3.46ZM18.02,367.95c-2.71.63-3.08,3.6-.94,4.51,4.32,1.85,5.19-5.5.94-4.51ZM36.78,798.92c-2.92-1.29-5.04,1.63-4.05,2.89,2.63,3.34,7.6-1.33,4.05-2.89ZM293.45,835.52c-.13-.57-.07-1.4-.42-1.67-6.64-5.02-6.62,2.94-2.39,3.64.89.15,2.64-1.08,2.82-1.96ZM252.06,75.67c.36-.7-.47-2.43-1.95-2.5-1.91-.09-3.27,2.05-1.83,3.87.54.68,2.85.39,3.78-1.37ZM348.78,700.35c-3.04-1.64-4.33,3.75-1.68,4.27,2.49.49,3.47-3.31,1.68-4.27ZM320.57,833.83c-2.3-.1-2.57,2.78-.21,3.56,3.91,1.28,8.49-3.17.21-3.56ZM26.5,431.74c-2.67.23-1.72,4.68.46,4.43,2.98-.33,3.08-4.73-.46-4.43ZM338.38,483.65c-1.01,3.14,2.38,4.95,3.01,3.26,1.44-3.84-1.89-6.74-3.01-3.26ZM274.64,879.55c-.46.8.47,2.63,1.63,2.92,7.71,1.94.68-6.92-1.63-2.92ZM311.67,294.94c-.55,1.13-.76.53-1.56.43-9.67-1.24-3.14,9.32,1.56-.43ZM303.16,562.86c-1.74-.85-5.31,2.06-1.94,4.15,1.61,1,5.22-2.56,1.94-4.15ZM309.95,564.83c-.07.48.83,1.67,1.8,1.36,5.33-1.75-.58-9.96-1.8-1.36ZM26.95,141.88c-1.58-.08-1.72,1.23-2.3,5.08-.12.78,1.62,1.04,2.07.67,2.05-1.72,2.46-5.64.24-5.75ZM319.81,775.75c.06-1.02-1.22-2.32-2.39-2.43-3.27-.32-2.3,5.13.03,5.01.92-.05,2.3-1.56,2.36-2.57ZM337.8,775.95c-.88-.69-2.6-.15-2.95.95-.57,1.79.79,3.67,2.71,3.75,1.75.08,2.88-2.61.23-4.7ZM20.74,519.63c-.81-.03-4.11-.03-4.36.75-.33,1,.13,1.21,5,3.58,1.83.89,2.62-4.19-.64-4.33ZM334.62,323.09c-2.93.35-2.7,4.7.57,4.59,2.77-.1,2.69-4.98-.57-4.59ZM301.05,816.85c2.46.62,2.69-3.12.97-3.45-5.96-1.11-3.92,2.7-.97,3.45ZM144.07,67.64c.5,1.14,2.74,1.06,3.3.57,4.03-3.61-4.99-4.4-3.3-.57ZM27.33,117.09c-2.34.01-2.06,2.8-1.04,3.13,4.28,1.41,5-3.15,1.04-3.13ZM24.05,265.39c2.18,2.16,5.04-1.06,3.15-2.16-2.8-1.63-4.65.67-3.15,2.16ZM321.82,844.87c-2.22,1.49-.48,5.51,1.28,4.14,2.2-1.72.49-5.33-1.28-4.14ZM291.75,867.76c-2.38.42-2.69,2.87-.41,3.83,3.53,1.49,4.86-4.62.41-3.83ZM318.75,581.2c-.61.64-1.32,1.14-1.64,1.82-.46,1,1.75,3.17,3.99,1.65.7-.48.96-1.82.28-2.27-.72-.47-1.59-.74-2.63-1.2ZM244.82,906.64c-1.54-.51-3.89,3.98-1.14,3.94,2.49-.04,2.22-3.59,1.14-3.94ZM318.09,426.58c-.94-.66-1.6-1.33-2.39-1.6-.74-.25-1.83,1.05-1.77,1.89.09,1.32,1.62,2.59,2.51,1.96.66-.47,1.02-1.35,1.65-2.25ZM320.83,680.2c.23-1-2.74-1.61-3.28.51-.34,1.33,2.53,2.75,3.28-.51ZM254.29,88c-2.92-.78-3.21,2.75-1.96,3.93,1.45,1.37,3.7-3.47,1.96-3.93ZM332.86,581.59c-1.28-1.94-3.72-.07-2.2,1.96.95,1.27,3.16-.49,2.2-1.96ZM350.77,612.03c1.69.41,3.03-1.94.39-3.11-1.6-.71-2.95,2.49-.39,3.11ZM299.52,821.63c-.5.23-1.35.37-1.43.71-.64,2.51,4.27,2.11,1.43-.71ZM19.78,444.92c.36,2.84,3.75,1.24,3.09-.66-.59-1.68-3.31-1.11-3.09.66ZM293.98,875.8c-.7-.49-2.08.03-2.38.78-.3.74.34,2.33,1.05,2.29.87-.05,1.73-.46,2.57-.79.29-.11-.46-1.73-1.24-2.28ZM319.54,491.02c1.33,2.11,3.2.16,2.7-1.05-.7-1.7-3.61-.39-2.7,1.05ZM342.31,805.99c-3.26-1.36-2.58,3.34-1.58,3.08,1.79-.48,3.19-2.41,1.58-3.08ZM135.05,885.58c-.26.55-.72,1.09-.71,1.64.04,3.17,4.9.8.71-1.64ZM159.06,75.09c-.18-.54-.23-1.24-.61-1.56-1.41-1.19-3.41,3.87.61,1.56ZM18.08,264.81c.14-.89-.85-2.06-1.66-1.9-.99.19-1.2,2.46.21,2.67.43.07.96-.49,1.45-.77ZM22.38,516.81c.6-1.02-.93-3.11-2.45-1.03-.93,1.27,1.42,2.76,2.45,1.03ZM137.8,70.63c-.23-.38-.83-.52-1.27-.77-.24.53-.68,1.06-.67,1.59,0,.84,1.15,2.23,1.41,2,.82-.73,1.21-1.7.54-2.82ZM298.34,582.45c1.84,1.25,2.36,1.83,2.66.69.32-1.2-.16-2.05-1.1-1.87-.47.09-.85.63-1.56,1.18ZM129.61,70.85c-.09-1.86.12-1.57-.74-1.59.14,1.87-.07,1.59.74,1.59ZM18.99,255.35c-.25.18-.66.33-.72.56-.29,1.07,1.88,2.95,2.21,1.07.25-1.38-.3-1.95-1.49-1.63ZM227.38,902.87c-.37.66.75,1.81,1.68,1.85.75.03,1.58-1.28,1.13-1.99-.48-.75-2.18-1-2.81.14ZM220.69,893.81c-1.11,3.14,2.84,2.54,2.65,1.27-.29-1.89-2.13-2.74-2.65-1.27ZM105.73,883.1c-1.37.47-.17,2.77.65,2.53,1.4-.41,1.04-3.11-.65-2.53ZM223.22,877.98c.5.89,1.47-.61,1.37-1.33-.06-.45-.62-.84-.96-1.25-.98.99-1.32,1-.41,2.59ZM294.98,858.04c-.43.31-1.16.57-1.21.93-.4,2.74,2.74,1.74,2.34.18-.11-.44-.73-.75-1.13-1.12ZM9.42,434.33c-.25-.5-.4-1.3-.77-1.43-2.76-.96-2.97,4.89.77,1.43ZM313.73,490.85c-.46.26-1.23.44-1.31.79-.53,2.13,4.07,2.4,1.31-.79ZM327.84,572.48c-.31-.41-.57-1.11-.93-1.16-.47-.07-1.13.25-1.5.62-.56.57.42,1.74,1.37,1.53.4-.09.71-.64,1.05-.99ZM186.91,33.89c1.38.01.15-2.95-.25-1.95-.32.81-.66,1.95.25,1.95ZM129.22,36.94c-.35,1.09-.34.76.37,1.1.39-1.1.35-.78-.37-1.1ZM19.83,186.25c-.92.05-1.14.41-.56.96.1.1.52-.14.8-.22-.08-.25-.16-.49-.23-.74ZM325.39,223.4c.81.76.22.72,2.04.06-1.09-1.09-.68-1.08-2.04-.06ZM39.15,248.45c.24.04.77-.34.76-.38-1.11-3.11-2.44.13-.76.38ZM16.68,318l-.67-.11c.28,1.03.12,1.02.67.11ZM9.77,322.26c-.16-.02-.37.38-.56.59.39.32.79.63,1.18.95.64-1,1.11-1.35-.62-1.54ZM15.94,322.09c-.39.35-.77.7-1.16,1.05,1.12,1.22,1.99.79,2.05.02.02-.33-.57-.71-.89-1.07ZM348.36,717.71c-1.28,1.57-1.28.84-.17,2.72,1.34-1.75,1.25-1.04.17-2.72ZM134.49,901.98c-.17-1.5-.78-1.92-1.59-1.51-1.37.7-.49,1.59.29,2.84.49-.5.97-.99,1.3-1.32ZM246.67,898.49c-2.77-1.06-2.99,1.38-.05.6.07-.02.11-.58.05-.6ZM289.86,640.33c1.39.94,1.56-.99.56-1.04-.68-.03-.96.76-.56,1.04ZM282.86,611.34c.64.6,2.04-.38.62-.92-.47-.18-.95.61-.62.92ZM339.62,582.33c-.29-.46-.58-.91-.87-1.36-1.42,1.22-.65,2.31.87,1.36ZM329.31,561.56l-.34.79c.86,0,.77.18.34-.79ZM306.05,555.35c.82.82.2.77,2.16.1-1.17-1.16-.74-1.14-2.16-.1ZM284.85,870.05c-1.55.58-.34,3.69.67.62.04-.12-.42-.39-.67-.62ZM21.66,423.9c-.52.89.56,1.65.78.48.07-.37-.52-.92-.78-.48ZM11.11,419.09c-1.25-.88-2.05.07-.68,1.31.23-.44.45-.87.68-1.31ZM303.29,848.98c-.86-.7-.52-.63-1.29-.06.71.64.35.67,1.29.06ZM29.45,411.97c-.74,1.14.58,1.34.5.24,0-.09-.33-.16-.5-.24ZM320.98,382.39c-.2.25.38,1.04,1.36.66.26-.1.46-.36.68-.55-.88-1-.94-1.47-2.04-.12ZM324.02,303.69c-.66-.72-.37-.71-1.11-.07.9.67.77.64,1.11.07ZM257.98,78.81l-.06.46c.59-.21.59-.09.06-.46ZM206.91,893.33c-.68-.76-.38-.73-1.15-.09.64.72.41.7,1.15.09ZM327.47,580.28l-.49-.06c.23.67.11.67.49.06ZM23.94,497.69l-.5-.09c.21.64.08.63.5.09ZM284.85,879.82l.65.09c-.3-.85-.15-.82-.65-.09ZM231.02,854.96l.49.08c-.19-.64-.08-.63-.49-.08ZM315.26,397.9c.4,1.12,1.61.11.82-.5-.36-.28-.91.26-.82.5ZM315.62,393.59c-.76.65-.73.36-.09,1.12.72-.62.69-.4.09-1.12Z"/>
  </g>
</svg>